<?xml version="1.0" encoding="utf-8"?>
<!-- Generator: Adobe Illustrator 26.2.1, SVG Export Plug-In . SVG Version: 6.00 Build 0)  -->
<svg version="1.1" id="Layer_1" xmlns="http://www.w3.org/2000/svg" xmlns:xlink="http://www.w3.org/1999/xlink" x="0px" y="0px"
	 viewBox="0 0 332.9 74.4" style="enable-background:new 0 0 332.9 74.4;" xml:space="preserve">
<style type="text/css">
	.st0{fill:#1CB182;}
	.st1{fill:#252829;}
</style>
<g>
	<path class="st0" d="M22.9,58.5c-1.1,0.6-2.3,1-3.5,1.2c-1,0.2-1.9,0.2-2.9,0.2c-1,0-2.1-0.2-3.1-0.3c-0.1,0-0.1,0-0.2-0.1
		c0,0,0,0-0.1,0c0,0,0,0,0-0.1c0-0.1-0.1-0.1-0.1-0.2c-0.1-1-0.3-2.1-0.3-3.1c0-1,0-2,0.2-2.9c0.2-1.2,0.6-2.4,1.2-3.5
		c0.1-0.2,0.2-0.2,0.3-0.2c1.3,0.2,2.6,0.2,4,0c1.1-0.1,2.2-0.4,3.2-0.9c0.1,0.3,0.1,0.5,0.2,0.8c0,0.4,0.1,0.8,0.4,1
		c0.3,0.3,0.7,0.4,1,0.4c0.3,0,0.5,0.1,0.8,0.2c-0.5,1-0.7,2.1-0.9,3.2c-0.2,1.4-0.2,2.7,0,4C23.1,58.4,23,58.5,22.9,58.5z"/>
	<path class="st0" d="M13.1,59.4C13.1,59.5,13.1,59.5,13.1,59.4"/>
	<path class="st0" d="M25.1,55c0.1-1.2,0.4-2.4,0.9-3.5c0.1-0.3,0.3-0.4,0.6-0.3c1,0.1,2.1,0,3.1-0.1c1.4-0.2,2.9-0.5,4.3-1
		c0.8-0.3,1.5-0.7,2.4-1.1c-0.1,1.6,0.2,3.1,0.7,4.6c0.2,0.5,0.3,0.9,0.6,1.3c0.1,0.2,0.1,0.4-0.1,0.5c-1.6,2-3.5,3.7-5.9,4.7
		c-1.7,0.7-3.4,1.2-5.2,1c-0.3,0-0.4-0.1-0.5-0.4C25.3,59,25,57,25.1,55z"/>
	<path class="st0" d="M40.7,55.6c-0.7-1-1.3-2-1.7-3.2c-0.3-1.1-0.5-2.2-0.5-3.5c0.1-2.2,0.7-4.4,1.9-6.5c0.6-1.1,1.4-2.2,2.1-3.2
		c0.5-0.8,1.2-1,2-1c0.7,0,1.4,0,2.1-0.2c0.2-0.1,0.4,0,0.6,0.3c0.6,1.6,1.5,3.2,2.4,4.6c0.8,1.3,1.7,2.6,2.7,3.8
		c0.1,0.1,0.1,0.2,0,0.4c-0.6,1.2-1.4,2.3-2.2,3.4c-1.2,1.4-2.6,2.5-4.1,3.5c-1.5,0.9-3,1.6-4.7,2.1C41,56.2,40.8,55.8,40.7,55.6z"
		/>
	<path class="st0" d="M55.3,46.1c1.3-2,2.4-4,3.1-6.3c0.7-2,1.2-5.6,0.7-8.8c-0.5-2.5-1.5-4.8-2.9-7c-1-1.5-2.1-2.9-3.4-4.1
		l-0.2-0.2c-1.2-1.2-2.6-2.4-4.1-3.3c-2.1-1.4-4.5-2.4-7-2.9c-3.2-0.5-6.8,0-8.8,0.7c-2.2,0.7-4.3,1.8-6.3,3.1
		c-0.3,0.2-0.3,0.3,0,0.5c2.4,2,5,3.8,7.8,5.1c0.5,0.2,1.1,0.5,1.6,0.7c0.8,0.3,1.4,0.6,1.1,1.8c-0.3,1.3-0.5,2.7-0.4,4.1
		c0.1,1.7,0.4,3.5,0.9,5.1c0,0.1,0.1,0.2,0.2,0.3c0,0,0,0,0,0.1c0,0,0.1,0,0.1,0c0.1,0.1,0.2,0.1,0.3,0.2c1.7,0.5,3.4,0.8,5.1,0.9
		c1.4,0.1,2.7,0,4.1-0.4c1.2-0.3,1.4,0.2,1.8,1.1c0.2,0.5,0.4,1.1,0.7,1.6c1.3,2.9,3.1,5.4,5.1,7.8C55,46.4,55.1,46.4,55.3,46.1z"/>
	<path class="st0" d="M35.8,46.6c-1.6,1.2-3.5,1.8-5.4,2.2c-1.2,0.2-2.4,0.3-3.7,0.3c-0.8,0-1.7-0.1-2.5-0.2c-0.1,0-0.2-0.1-0.3-0.1
		c0,0,0,0-0.1,0l0,0c0,0,0,0,0,0c-0.1-0.1-0.1-0.2-0.1-0.3c-0.1-0.8-0.2-1.7-0.2-2.5c0-1.2,0.1-2.5,0.3-3.7c0.3-2,1-3.8,2.2-5.4
		c0.4-0.6,0.9-0.9,1.6-1.1c0.9-0.2,1.8-0.6,2.7-1c1.5-0.8,3-1.6,4.3-2.7c0.3,1.4,0.5,2.8,1,4.1c0.1,0.2,0.2,0.4,0.4,0.6l0,0
		c0.2,0.2,0.3,0.3,0.6,0.4c1.3,0.5,2.7,0.7,4.1,1c-1.1,1.3-1.9,2.8-2.7,4.3c-0.4,0.9-0.9,1.7-1,2.7C36.8,45.8,36.4,46.2,35.8,46.6z"
		/>
	<path class="st0" d="M13.1,59.5C13.1,59.5,13.1,59.5,13.1,59.5"/>
	<path class="st0" d="M17.6,47.5c1.2-0.1,2.4-0.4,3.5-0.9c0.3-0.1,0.4-0.3,0.3-0.6c-0.1-1,0-2.1,0.1-3.1c0.2-1.4,0.5-2.9,1-4.3
		c0.3-0.8,0.7-1.5,1.1-2.4c-1.6,0.1-3.1-0.2-4.6-0.7c-0.5-0.2-0.9-0.3-1.3-0.6c-0.2-0.1-0.4-0.1-0.5,0.1c-2,1.6-3.7,3.5-4.7,5.9
		c-0.7,1.7-1.2,3.4-1,5.2c0,0.3,0.1,0.4,0.4,0.5C13.6,47.3,15.6,47.6,17.6,47.5z"/>
	<path class="st0" d="M17,31.9c1,0.7,2,1.3,3.2,1.7c1.1,0.3,2.2,0.5,3.5,0.5c2.2-0.1,4.4-0.7,6.5-1.9c1.1-0.6,2.2-1.4,3.2-2.1
		c0.8-0.5,1-1.2,1-2c0-0.7,0-1.4,0.2-2.1c0.1-0.2,0-0.4-0.3-0.6c-1.6-0.6-3.2-1.5-4.6-2.4c-1.3-0.8-2.6-1.7-3.8-2.7
		c-0.1-0.1-0.2-0.1-0.4,0c-1.2,0.6-2.3,1.4-3.4,2.2c-1.4,1.2-2.5,2.6-3.5,4.1c-0.9,1.5-1.6,3-2.1,4.7C16.4,31.6,16.8,31.8,17,31.9z"
		/>
</g>
<g>
	<path class="st1" d="M76.2,24h7.2v10.6h8V24h7.2v26.6h-7.2v-9.7h-8v9.7h-7.2V24z"/>
	<path class="st1" d="M111.4,49.9c-1.7-0.7-3.2-1.6-4.4-2.8c-1.2-1.2-2.1-2.6-2.8-4.3s-1-3.5-1-5.5s0.3-3.8,1-5.5
		c0.7-1.7,1.6-3.1,2.8-4.3s2.7-2.1,4.4-2.8c1.7-0.7,3.6-1,5.6-1c2,0,3.8,0.3,5.6,1s3.2,1.6,4.4,2.8c1.2,1.2,2.1,2.6,2.8,4.3
		c0.7,1.7,1,3.6,1,5.6c0,2-0.3,3.9-1,5.6c-0.7,1.7-1.6,3.1-2.8,4.3c-1.2,1.2-2.7,2.1-4.4,2.8c-1.7,0.7-3.6,1-5.6,1
		C115,51,113.1,50.6,111.4,49.9z M120.3,43.4c1-0.6,1.7-1.5,2.3-2.5c0.5-1.1,0.8-2.2,0.8-3.6c0-1.3-0.3-2.5-0.8-3.6
		c-0.5-1.1-1.3-1.9-2.3-2.5c-1-0.6-2.1-0.9-3.3-0.9s-2.3,0.3-3.3,0.9s-1.7,1.5-2.3,2.5c-0.5,1.1-0.8,2.3-0.8,3.6
		c0,1.3,0.3,2.5,0.8,3.6c0.5,1.1,1.3,1.9,2.3,2.5c1,0.6,2.1,0.9,3.3,0.9C118.3,44.3,119.4,44,120.3,43.4z"/>
	<path class="st1" d="M135.4,24h10.3c1.3,0,2.5,0.2,3.6,0.5s2,0.7,2.7,1.3c0.8,0.6,1.4,1.2,1.9,2c0.5,0.8,0.9,1.6,1.1,2.6
		c0.2,0.9,0.4,2,0.4,3.1c0,2-0.4,3.6-1.3,5c-0.8,1.4-2,2.4-3.5,3c-1.5,0.7-3.3,1-5.3,1h-3v8.1h-6.9V24z M144.1,36.3
		c1.2,0,2.1-0.3,2.8-0.8c0.7-0.5,1.1-1.3,1.1-2.2c0-0.9-0.3-1.6-1-2.2c-0.7-0.6-1.6-0.9-2.8-0.9h-1.9v6.1H144.1z"/>
	<path class="st1" d="M162.4,49.9c-1.7-0.7-3.2-1.8-4.6-3.2l4-5c1,1,2,1.7,3.1,2.2c1.1,0.5,2.1,0.7,3,0.7c0.8,0,1.3-0.2,1.7-0.5
		c0.4-0.3,0.6-0.7,0.6-1.2c0-0.5-0.2-1-0.6-1.3c-0.4-0.3-1.3-0.8-2.7-1.2c-0.6-0.2-1.2-0.4-1.7-0.6s-1-0.5-1.6-0.7
		c-0.6-0.3-1.1-0.6-1.5-0.9c-0.4-0.3-0.9-0.7-1.3-1.2c-0.4-0.5-0.8-0.9-1-1.4s-0.5-1.1-0.6-1.7c-0.2-0.7-0.2-1.4-0.2-2.1
		c0-1.5,0.4-2.8,1.1-4c0.8-1.2,1.8-2.2,3.2-2.9c1.4-0.7,2.9-1.1,4.5-1.1c1.8,0,3.4,0.3,5,0.9c1.6,0.6,3.1,1.5,4.4,2.7l-3.9,5.1
		c-1.1-0.9-2.1-1.5-2.9-1.8c-0.8-0.4-1.5-0.5-2.2-0.5c-0.6,0-1.1,0.1-1.4,0.4c-0.3,0.3-0.5,0.7-0.5,1.2c0,0.5,0.2,0.9,0.7,1.3
		c0.5,0.4,1.3,0.8,2.6,1.3c2.2,0.9,3.7,1.5,4.5,1.9c1.6,0.9,2.7,1.9,3.2,3.2c0.4,0.8,0.5,1.8,0.5,3c0,0.9-0.1,1.8-0.3,2.6
		s-0.5,1.5-0.9,2.1c-0.4,0.6-0.8,1.1-1.3,1.6c-0.5,0.5-1.1,0.9-1.7,1.2c-0.6,0.3-1.2,0.6-1.9,0.8c-0.7,0.2-1.3,0.4-2,0.4
		c-0.6,0.1-1.3,0.1-2,0.1C165.9,51,164.1,50.6,162.4,49.9z"/>
	<path class="st1" d="M217.8,24l-8.3,26.6h-6.5l-3.9-16.2h-0.1l-4.1,16.2h-6.5L180.2,24h7.6l3.9,14.8h0.1l3.5-14.8h7.5l3.5,14.8h0.1
		l3.9-14.8H217.8z"/>
	<path class="st1" d="M227.5,49.9c-1.7-0.7-3.2-1.6-4.4-2.8c-1.2-1.2-2.1-2.6-2.8-4.3s-1-3.5-1-5.5s0.3-3.8,1-5.5
		c0.7-1.7,1.6-3.1,2.8-4.3c1.2-1.2,2.7-2.1,4.4-2.8c1.7-0.7,3.6-1,5.6-1c2,0,3.8,0.3,5.6,1s3.2,1.6,4.4,2.8c1.2,1.2,2.1,2.6,2.8,4.3
		c0.7,1.7,1,3.6,1,5.6c0,2-0.3,3.9-1,5.6s-1.6,3.1-2.8,4.3c-1.2,1.2-2.7,2.1-4.4,2.8c-1.7,0.7-3.6,1-5.6,1
		C231.1,51,229.2,50.6,227.5,49.9z M236.4,43.4c1-0.6,1.7-1.5,2.3-2.5c0.5-1.1,0.8-2.2,0.8-3.6c0-1.3-0.3-2.5-0.8-3.6
		c-0.5-1.1-1.3-1.9-2.3-2.5c-1-0.6-2.1-0.9-3.3-0.9c-1.2,0-2.3,0.3-3.3,0.9c-1,0.6-1.7,1.5-2.3,2.5c-0.5,1.1-0.8,2.3-0.8,3.6
		c0,1.3,0.3,2.5,0.8,3.6s1.3,1.9,2.3,2.5c1,0.6,2.1,0.9,3.3,0.9C234.4,44.3,235.5,44,236.4,43.4z"/>
	<path class="st1" d="M265.1,50.6l-5-8.1h-1.6v8.1h-6.9V24h10.6c1.6,0,3.1,0.2,4.3,0.7s2.3,1.1,3,2c0.8,0.9,1.4,1.8,1.7,3
		s0.6,2.4,0.6,3.8c0,1-0.1,1.9-0.3,2.7s-0.5,1.6-0.9,2.2c-0.4,0.7-0.9,1.2-1.4,1.7c-0.5,0.5-1.2,0.9-1.9,1.3l0,0.1l6,9.2H265.1z
		 M258.4,36.3h2.2c1.2,0,2.1-0.3,2.8-0.8c0.7-0.5,1.1-1.3,1.1-2.2c0-0.9-0.3-1.6-1-2.2c-0.7-0.6-1.6-0.9-2.9-0.9h-2.2V36.3z"/>
	<path class="st1" d="M285.5,41l-1.5,1.8v7.7H277V24h7.1v8.9h0.1l6.5-8.9h9l-9.4,11.4l9.7,15.2h-8.7L285.5,41L285.5,41z"/>
	<path class="st1" d="M306.1,49.9c-1.7-0.7-3.2-1.8-4.6-3.2l4-5c1,1,2,1.7,3.1,2.2c1.1,0.5,2.1,0.7,3,0.7c0.8,0,1.3-0.2,1.7-0.5
		c0.4-0.3,0.6-0.7,0.6-1.2c0-0.5-0.2-1-0.6-1.3c-0.4-0.3-1.3-0.8-2.7-1.2c-0.6-0.2-1.2-0.4-1.7-0.6c-0.5-0.2-1-0.5-1.6-0.7
		c-0.6-0.3-1.1-0.6-1.5-0.9c-0.4-0.3-0.9-0.7-1.3-1.2c-0.4-0.5-0.8-0.9-1-1.4s-0.5-1.1-0.6-1.7c-0.2-0.7-0.2-1.4-0.2-2.1
		c0-1.5,0.4-2.8,1.1-4c0.8-1.2,1.8-2.2,3.2-2.9c1.4-0.7,2.9-1.1,4.5-1.1c1.8,0,3.4,0.3,5,0.9c1.6,0.6,3.1,1.5,4.4,2.7l-3.9,5.1
		c-1.1-0.9-2.1-1.5-2.9-1.8c-0.8-0.4-1.5-0.5-2.2-0.5c-0.6,0-1.1,0.1-1.4,0.4c-0.3,0.3-0.5,0.7-0.5,1.2c0,0.5,0.2,0.9,0.7,1.3
		c0.5,0.4,1.3,0.8,2.6,1.3c2.2,0.9,3.7,1.5,4.5,1.9c1.6,0.9,2.7,1.9,3.2,3.2c0.4,0.8,0.5,1.8,0.5,3c0,0.9-0.1,1.8-0.3,2.6
		s-0.5,1.5-0.9,2.1c-0.4,0.6-0.8,1.1-1.3,1.6c-0.5,0.5-1.1,0.9-1.7,1.2c-0.6,0.3-1.2,0.6-1.9,0.8c-0.7,0.2-1.3,0.4-2,0.4
		c-0.6,0.1-1.3,0.1-2,0.1C309.6,51,307.8,50.6,306.1,49.9z"/>
</g>
</svg>
