<?xml version="1.0" encoding="utf-8"?>
<!-- Generator: Adobe Illustrator 27.8.1, SVG Export Plug-In . SVG Version: 6.00 Build 0)  -->
<svg version="1.1" id="Layer_1" xmlns="http://www.w3.org/2000/svg" xmlns:xlink="http://www.w3.org/1999/xlink" x="0px" y="0px"
	 viewBox="0 0 1800 900" style="enable-background:new 0 0 1800 900;" xml:space="preserve">
<style type="text/css">
	.st0{fill:#489BB7;}
	.st1{fill:#EC9041;}
	.st2{font-family:'Avenir-LightOblique';}
	.st3{font-size:190px;}
</style>
<g>
	<g>
		<g>
			<path class="st0" d="M424.7,353.6h100.9c15.4,0,29.3,1.9,41.9,5.7c12.6,3.8,23.4,9.4,32.6,16.6c9.1,7.3,16.2,16.1,21.3,26.5
				c5,10.4,7.5,22.4,7.5,35.8v0.8c0,14.5-2.9,27.3-8.7,38.4c-5.8,11.1-13.7,20.3-23.6,27.7c-9.9,7.4-21.5,12.9-34.6,16.6
				c-13.1,3.7-27,5.5-41.5,5.5h-75.1v103.3h-20.7V353.6z M521.7,508.7c13,0,24.8-1.6,35.4-4.8c10.6-3.2,19.7-7.8,27.2-13.7
				c7.5-6,13.4-13.2,17.7-21.7c4.2-8.5,6.4-17.9,6.4-28.3v-0.8c0-11.1-2.1-20.9-6.2-29.3c-4.1-8.4-9.9-15.3-17.3-20.9
				c-7.4-5.6-16.3-9.8-26.6-12.7c-10.3-2.9-21.7-4.4-34.2-4.4h-78.7v136.5H521.7z"/>
			<path class="st0" d="M710.4,695.1c-7.7,0-14.6-0.7-20.7-2.2c-6.1-1.5-12.6-3.7-19.5-6.7L677,669c5.3,2.6,10.5,4.6,15.5,5.7
				c5,1.2,11.4,1.8,19.1,1.8c5.3,0,10.2-0.8,14.7-2.4c4.5-1.6,8.7-4.3,12.7-8.1c4-3.8,7.8-8.8,11.5-14.8c3.7-6.1,7.4-13.4,11.1-22.1
				l-97.3-200.3h22.6l84.2,180.4l73.1-180.4h21.4l-87.8,208.9c-9,21.1-18.9,35.9-29.6,44.5C737.6,690.8,724.9,695.1,710.4,695.1z"/>
		</g>
		<g>
			<path class="st1" d="M918.4,360.8h92.6c21.7,0,41.6,3.5,59.8,10.5c18.1,7,33.8,16.7,46.9,29.1c13.1,12.4,23.2,27,30.4,43.7
				c7.2,16.8,10.7,34.9,10.7,54.4v0.8c0,19.5-3.6,37.7-10.7,54.6c-7.1,16.9-17.3,31.5-30.4,43.9c-13.1,12.4-28.7,22.2-46.9,29.3
				c-18.1,7.1-38.1,10.7-59.8,10.7h-92.6V360.8z M1011,619.2c19.3,0,36.8-3.1,52.4-9.3c15.6-6.2,28.9-14.7,39.7-25.4
				c10.9-10.7,19.3-23.3,25.2-37.7c6-14.4,8.9-30,8.9-46.7v-0.8c0-16.4-3-31.9-8.9-46.4c-6-14.6-14.4-27.3-25.2-38.1
				c-10.9-10.8-24.1-19.4-39.7-25.8c-15.6-6.4-33.1-9.5-52.4-9.5h-71.9v239.8H1011z"/>
			<path class="st1" d="M1286.3,642.6c-9.5,0-18.9-1.3-28.2-4c-9.3-2.6-17.6-6.6-25-11.9c-7.4-5.3-13.4-11.9-18.1-19.8
				c-4.6-7.9-6.9-17.1-6.9-27.7v-0.8c0-10.5,2.2-19.9,6.6-28.1c4.4-8.2,10.4-15,18.1-20.6c7.7-5.5,16.9-9.8,27.8-12.7
				c10.9-2.9,22.9-4.4,36.2-4.4c14.3,0,26.6,0.8,36.9,2.4c10.3,1.6,20.4,3.7,30.2,6.3v-8.7c0-20.5-5.9-35.8-17.7-46
				c-11.8-10.2-28.1-15.3-49.1-15.3c-12.5,0-23.8,1.5-34.2,4.5c-10.3,3-20.1,6.9-29.4,11.7l-7.2-17c11.1-5.4,22.4-9.7,33.8-12.9
				c11.4-3.2,24.1-4.9,38.1-4.9c27.8,0,49.1,7.4,64,22.2c13.8,13.7,20.7,32.7,20.7,57v125.8h-19.1v-33.6c-3.4,4.7-7.6,9.4-12.5,14
				c-4.9,4.6-10.5,8.7-16.9,12.3c-6.4,3.6-13.6,6.5-21.7,8.7C1304.6,641.4,1295.8,642.6,1286.3,642.6z M1287.5,624
				c10.3,0,20.1-1.5,29.4-4.5c9.3-3,17.4-7.2,24.4-12.6c7-5.4,12.6-11.9,16.7-19.5c4.1-7.6,6.2-16,6.2-25.2v-22.9
				c-8.5-2.1-18.4-4.1-29.8-6.1c-11.4-2-24.4-3-38.9-3c-21.5,0-37.9,4.3-49.5,12.8c-11.5,8.5-17.3,19.9-17.3,34.1v0.8
				c0,7.4,1.6,13.9,4.8,19.5c3.2,5.7,7.5,10.4,12.9,14.4c5.4,3.9,11.7,7,18.9,9.1C1272.4,622.9,1279.8,624,1287.5,624z"/>
			<path class="st1" d="M1520.3,641.4c-7.9,0-15.4-1.1-22.2-3.2c-6.9-2.1-12.9-5.5-18.1-10.1c-5.2-4.6-9.2-10.4-12.1-17.4
				c-2.9-7-4.4-15.2-4.4-24.7V453.8h-29.4V436h29.4v-64.5h19.5V436h71.1v17.8h-71.1v129.9c0,14.5,3.8,24.6,11.3,30.4
				c7.5,5.8,17.3,8.7,29.2,8.7c5,0,9.8-0.5,14.3-1.5c4.5-1,9.7-2.7,15.5-5.2v18.2c-5.3,2.4-10.5,4.2-15.7,5.3
				C1532.4,640.8,1526.6,641.4,1520.3,641.4z"/>
			<path class="st1" d="M1673.2,642.6c-9.5,0-18.9-1.3-28.2-4c-9.3-2.6-17.6-6.6-25-11.9c-7.4-5.3-13.4-11.9-18.1-19.8
				c-4.6-7.9-6.9-17.1-6.9-27.7v-0.8c0-10.5,2.2-19.9,6.5-28.1c4.4-8.2,10.4-15,18.1-20.6c7.7-5.5,17-9.8,27.8-12.7
				c10.9-2.9,22.9-4.4,36.2-4.4c14.3,0,26.6,0.8,36.9,2.4c10.3,1.6,20.4,3.7,30.2,6.3v-8.7c0-20.5-5.9-35.8-17.7-46
				c-11.8-10.2-28.1-15.3-49.1-15.3c-12.4,0-23.8,1.5-34.2,4.5c-10.3,3-20.1,6.9-29.4,11.7l-7.1-17c11.1-5.4,22.4-9.7,33.8-12.9
				c11.4-3.2,24.1-4.9,38.1-4.9c27.8,0,49.1,7.4,64,22.2c13.8,13.7,20.7,32.7,20.7,57v125.8h-19.1v-33.6c-3.4,4.7-7.6,9.4-12.5,14
				c-4.9,4.6-10.5,8.7-16.9,12.3c-6.3,3.6-13.6,6.5-21.6,8.7C1691.6,641.4,1682.8,642.6,1673.2,642.6z M1674.4,624
				c10.3,0,20.1-1.5,29.4-4.5c9.3-3,17.4-7.2,24.4-12.6c7-5.4,12.6-11.9,16.7-19.5c4.1-7.6,6.2-16,6.2-25.2v-22.9
				c-8.5-2.1-18.4-4.1-29.8-6.1c-11.4-2-24.4-3-38.9-3c-21.5,0-37.9,4.3-49.5,12.8c-11.5,8.5-17.3,19.9-17.3,34.1v0.8
				c0,7.4,1.6,13.9,4.8,19.5c3.2,5.7,7.5,10.4,12.9,14.4c5.4,3.9,11.7,7,18.9,9.1C1659.3,622.9,1666.7,624,1674.4,624z"/>
		</g>
		<g>
			<g>
				<g>
					<defs>
						<path id="SVGID_1_" d="M23.9,370.9l159.6,83.4v170.6 M23.9,370.9v170.6l159.6,83.4"/>
					</defs>
					<use xlink:href="#SVGID_1_"  style="overflow:visible;fill:#489BB7;"/>
					<clipPath id="SVGID_00000114770658067187852860000009635790331688896676_">
						<use xlink:href="#SVGID_1_"  style="overflow:visible;"/>
					</clipPath>
				</g>
			</g>
			<g>
				<g>
					<defs>
						<path id="SVGID_00000163071154101938577950000007918479735376554113_" d="M191.7,438.8L33.2,355.4l159.6-82l159.6,82.5
							L191.7,438.8L191.7,438.8L191.7,438.8z"/>
					</defs>
					<use xlink:href="#SVGID_00000163071154101938577950000007918479735376554113_"  style="overflow:visible;fill:#EC9041;"/>
					<clipPath id="SVGID_00000034799760512210803180000015478811906471791245_">
						<use xlink:href="#SVGID_00000163071154101938577950000007918479735376554113_"  style="overflow:visible;"/>
					</clipPath>
				</g>
			</g>
			<g>
				<g>
					<defs>
						<polyline id="SVGID_00000039832310374073145930000008019654068646827187_" points="202.2,454.4 361.8,370.9 361.8,541.5 
							202.2,625 						"/>
					</defs>
					
						<use xlink:href="#SVGID_00000039832310374073145930000008019654068646827187_"  style="overflow:visible;fill-rule:evenodd;clip-rule:evenodd;fill:#667B83;"/>
					<clipPath id="SVGID_00000012460141603295040850000006523998663349179538_">
						<use xlink:href="#SVGID_00000039832310374073145930000008019654068646827187_"  style="overflow:visible;"/>
					</clipPath>
				</g>
			</g>
			<g>
				<g>
					<defs>
						<path id="SVGID_00000096061414958780540580000012581355956976530615_" d="M23.9,562.2l159.6,83.4v170.6 M23.9,562.2v170.6
							l159.6,83.4"/>
					</defs>
					<use xlink:href="#SVGID_00000096061414958780540580000012581355956976530615_"  style="overflow:visible;fill:#489BB7;"/>
					<clipPath id="SVGID_00000023983470414477487690000016891821859683153836_">
						<use xlink:href="#SVGID_00000096061414958780540580000012581355956976530615_"  style="overflow:visible;"/>
					</clipPath>
				</g>
			</g>
			<g>
				<defs>
					<path id="SVGID_00000071533352285636531960000003053206317383980735_" d="M201.7,87.9l159.6,83.4v170.6 M201.7,87.8v170.6
						l159.6,83.4"/>
				</defs>
				<use xlink:href="#SVGID_00000071533352285636531960000003053206317383980735_"  style="overflow:visible;fill:#EC9041;"/>
				<clipPath id="SVGID_00000057147005147230918360000005562065391354920847_">
					<use xlink:href="#SVGID_00000071533352285636531960000003053206317383980735_"  style="overflow:visible;"/>
				</clipPath>
			</g>
		</g>
	</g>
</g>
<text transform="matrix(1 0 0 1 881.8591 816.1588)" class="st2 st3">Stockholm</text>
</svg>
