<svg xmlns="http://www.w3.org/2000/svg" xmlns:xlink="http://www.w3.org/1999/xlink" viewBox="0 0 1458 276" width="1458" height="276" style="width: 100%; height: 100%; transform: translate3d(0px, 0px, 0px); content-visibility: visible;" preserveAspectRatio="xMidYMid meet">
<defs>
<clipPath id="__lottie_element_2">
<rect width="1458" height="276" x="0" y="0">
</rect>
</clipPath>
<clipPath id="__lottie_element_7">
<path d="M0,0 L1080,0 L1080,1080 L0,1080z">
</path>
</clipPath>
<clipPath id="__lottie_element_11">
<path d="M0,0 L1080,0 L1080,1080 L0,1080z">
</path>
</clipPath>
<g id="__lottie_element_17">
<g style="display: none;" transform="matrix(2,0,0,2,377.5090026855469,610.3330078125)" opacity="1">
<g opacity="1" transform="matrix(1,0,0,1,0,0)">
<path fill="rgb(183,183,183)" fill-opacity="1" d=" M79.7247314453125,-68.33163452148438 C79.7247314453125,-68.33163452148438 78.7182388305664,-69.23457336425781 78.7182388305664,-69.23457336425781 C78.7182388305664,-69.23457336425781 -0.9153041243553162,-69.23457336425781 -0.9153041243553162,-69.23457336425781 C-0.9153041243553162,-69.23457336425781 -2.0636634826660156,-68.33163452148438 -2.0636634826660156,-68.33163452148438 C-2.0636634826660156,-68.33163452148438 -80.91352081298828,68.45801544189453 -80.91352081298828,68.45801544189453 C-80.91352081298828,68.45801544189453 -80.88300323486328,69.10199737548828 -80.88300323486328,69.10199737548828 C-79.6520004272461,69.80599975585938 -78.07099914550781,70.33300018310547 -76.48799896240234,70.33300018310547 C-76.48799896240234,70.33300018310547 -5.452000141143799,70.33300018310547 -5.452000141143799,70.33300018310547 C-2.2869999408721924,70.33300018310547 0.5270000100135803,68.57499694824219 2.1089999675750732,65.93699645996094 C2.1089999675750732,65.93699645996094 79.54873657226562,-68.33163452148438 79.54873657226562,-68.33163452148438 C79.54873657226562,-68.33163452148438 79.7247314453125,-68.33163452148438 79.7247314453125,-68.33163452148438z">
</path>
</g>
</g>
</g>
<clipPath id="__lottie_element_21">
<path d="M0,0 L1080,0 L1080,1080 L0,1080z">
</path>
</clipPath>
<linearGradient id="__lottie_element_27" spreadMethod="pad" gradientUnits="userSpaceOnUse" x1="324.50799560546875" y1="96.10800170898438" x2="135.41099548339844" y2="-243">
<stop offset="0%" stop-color="rgb(191,249,180)">
</stop>
<stop offset="50%" stop-color="rgb(159,244,140)">
</stop>
<stop offset="100%" stop-color="rgb(128,238,100)">
</stop>
</linearGradient>
<mask id="__lottie_element_17_1" mask-type="alpha">
<use xlink:href="#__lottie_element_17">
</use>
</mask>
<g id="__lottie_element_28">
<g style="display: none;" transform="matrix(2,0,0,2,256.4020080566406,540.0020141601562)" opacity="1">
<g opacity="1" transform="matrix(1,0,0,1,0,0)">
<path fill="rgb(57,57,57)" fill-opacity="1" d=" M59.05133819580078,-33.16081619262695 C59.05133819580078,-33.16081619262695 59.437835693359375,-33.94119644165039 59.437835693359375,-33.94119644165039 C59.437835693359375,-33.94119644165039 20.3880558013916,-102.24797821044922 20.3880558013916,-102.24797821044922 C20.3880558013916,-102.24797821044922 19.13733673095703,-102.26378631591797 19.13733673095703,-102.26378631591797 C17.906335830688477,-101.560791015625 16.675336837768555,-100.32978820800781 15.972336769104004,-99.09878540039062 C15.972336769104004,-99.09878540039062 -60.654232025146484,35.38657760620117 -60.654232025146484,35.38657760620117 C-60.69902801513672,35.46123123168945 -60.69902801513672,35.54032516479492 -60.654232025146484,35.6149787902832 C-60.654232025146484,35.6149787902832 -23.496000289916992,101.10399627685547 -23.496000289916992,101.10399627685547 C-22.792999267578125,102.51100158691406 -21.562000274658203,103.56600189208984 -20.33099937438965,104.26899719238281 C-20.33099937438965,104.26899719238281 59.05133819580078,-33.16081619262695 59.05133819580078,-33.16081619262695z">
</path>
</g>
</g>
</g>
<clipPath id="__lottie_element_32">
<path d="M0,0 L1080,0 L1080,1080 L0,1080z">
</path>
</clipPath>
<linearGradient id="__lottie_element_38" spreadMethod="pad" gradientUnits="userSpaceOnUse" x1="-356.41748046875" y1="150.14012145996094" x2="-142.411376953125" y2="-191.48236083984375">
<stop offset="0%" stop-color="rgb(128,238,100)">
</stop>
<stop offset="9%" stop-color="rgb(125,236,99)">
</stop>
<stop offset="18%" stop-color="rgb(123,235,99)">
</stop>
<stop offset="27%" stop-color="rgb(117,232,98)">
</stop>
<stop offset="36%" stop-color="rgb(111,229,98)">
</stop>
<stop offset="46%" stop-color="rgb(100,223,97)">
</stop>
<stop offset="55%" stop-color="rgb(90,218,96)">
</stop>
<stop offset="64%" stop-color="rgb(75,210,95)">
</stop>
<stop offset="74%" stop-color="rgb(61,202,93)">
</stop>
<stop offset="83%" stop-color="rgb(43,193,91)">
</stop>
<stop offset="93%" stop-color="rgb(24,183,89)">
</stop>
<stop offset="96%" stop-color="rgb(17,179,88)">
</stop>
<stop offset="100%" stop-color="rgb(9,175,88)">
</stop>
</linearGradient>
<mask id="__lottie_element_28_1" mask-type="alpha">
<use xlink:href="#__lottie_element_28">
</use>
</mask>
<g id="__lottie_element_39">
<g style="display: none;" transform="matrix(2,0,0,2,256.4020080566406,540.0020141601562)" opacity="1">
<g opacity="1" transform="matrix(1,0,0,1,0,0)">
<path fill="rgb(57,57,57)" fill-opacity="1" d=" M23.135547637939453,35.687110900878906 C23.135547637939453,35.687110900878906 23.252099990844727,35.23955154418945 23.252099990844727,35.23955154418945 C23.252099990844727,35.23955154418945 -17.698753356933594,-33.39309310913086 -17.698753356933594,-33.39309310913086 C-17.698753356933594,-33.39309310913086 -18.290637969970703,-33.46492004394531 -18.290637969970703,-33.46492004394531 C-19.46035385131836,-32.79691696166992 -20.62897491455078,-31.628297805786133 -21.296977996826172,-30.458581924438477 C-21.296977996826172,-30.458581924438477 -58.51616287231445,31.00747299194336 -58.51616287231445,31.00747299194336 C-60.020355224609375,33.51414489746094 -60.02657699584961,36.85097122192383 -58.52238464355469,39.357643127441406 C-58.52238464355469,39.357643127441406 -21.289926528930664,101.32180786132812 -21.289926528930664,101.32180786132812 C-20.621925354003906,102.65876007080078 -19.447330474853516,103.66108703613281 -18.27761459350586,104.32908630371094 C-18.27761459350586,104.32908630371094 23.135547637939453,35.687110900878906 23.135547637939453,35.687110900878906z">
</path>
</g>
</g>
</g>
<clipPath id="__lottie_element_43">
<path d="M0,0 L1080,0 L1080,1080 L0,1080z">
</path>
</clipPath>
<linearGradient id="__lottie_element_49" spreadMethod="pad" gradientUnits="userSpaceOnUse" x1="-582.7495727539062" y1="216.3616485595703" x2="132.23162841796875" y2="-128.53155517578125">
<stop offset="0%" stop-color="rgb(128,238,100)">
</stop>
<stop offset="9%" stop-color="rgb(125,236,99)">
</stop>
<stop offset="18%" stop-color="rgb(123,235,99)">
</stop>
<stop offset="27%" stop-color="rgb(117,232,98)">
</stop>
<stop offset="36%" stop-color="rgb(111,229,98)">
</stop>
<stop offset="46%" stop-color="rgb(100,223,97)">
</stop>
<stop offset="55%" stop-color="rgb(90,218,96)">
</stop>
<stop offset="64%" stop-color="rgb(75,210,95)">
</stop>
<stop offset="74%" stop-color="rgb(61,202,93)">
</stop>
<stop offset="83%" stop-color="rgb(43,193,91)">
</stop>
<stop offset="93%" stop-color="rgb(24,183,89)">
</stop>
<stop offset="96%" stop-color="rgb(17,179,88)">
</stop>
<stop offset="100%" stop-color="rgb(9,175,88)">
</stop>
</linearGradient>
<mask id="__lottie_element_39_1" mask-type="alpha">
<use xlink:href="#__lottie_element_39">
</use>
</mask>
<g id="__lottie_element_50">
<g style="display: none;" transform="matrix(1,0,0,1,540,540)" opacity="1">
<g opacity="1" transform="matrix(1,0,0,1,0,0)">
<path fill="rgb(57,57,57)" fill-opacity="1" d=" M-205.592529296875,-69 C-205.592529296875,-69 -321.15118408203125,71 -321.15118408203125,71 C-321.15118408203125,71 -205.592529296875,211 -205.592529296875,211 C-205.592529296875,211 -93.10440826416016,71 -93.10440826416016,71 C-93.10440826416016,71 -205.592529296875,-69 -205.592529296875,-69z">
</path>
<path stroke-linecap="butt" stroke-linejoin="miter" fill-opacity="0" stroke-miterlimit="4" stroke="rgb(255,255,255)" stroke-opacity="1" stroke-width="0" d=" M-205.592529296875,-69 C-205.592529296875,-69 -321.15118408203125,71 -321.15118408203125,71 C-321.15118408203125,71 -205.592529296875,211 -205.592529296875,211 C-205.592529296875,211 -93.10440826416016,71 -93.10440826416016,71 C-93.10440826416016,71 -205.592529296875,-69 -205.592529296875,-69z">
</path>
</g>
</g>
</g>
<clipPath id="__lottie_element_54">
<path d="M0,0 L1080,0 L1080,1080 L0,1080z">
</path>
</clipPath>
<linearGradient id="__lottie_element_60" spreadMethod="pad" gradientUnits="userSpaceOnUse" x1="-542.6483154296875" y1="439.0598449707031" x2="-45.013328552246094" y2="-327.09552001953125">
<stop offset="0%" stop-color="rgb(128,238,100)">
</stop>
<stop offset="9%" stop-color="rgb(125,236,99)">
</stop>
<stop offset="18%" stop-color="rgb(123,235,99)">
</stop>
<stop offset="27%" stop-color="rgb(117,232,98)">
</stop>
<stop offset="36%" stop-color="rgb(111,229,98)">
</stop>
<stop offset="46%" stop-color="rgb(100,223,97)">
</stop>
<stop offset="55%" stop-color="rgb(90,218,96)">
</stop>
<stop offset="64%" stop-color="rgb(75,210,95)">
</stop>
<stop offset="74%" stop-color="rgb(61,202,93)">
</stop>
<stop offset="83%" stop-color="rgb(43,193,91)">
</stop>
<stop offset="93%" stop-color="rgb(24,183,89)">
</stop>
<stop offset="96%" stop-color="rgb(17,179,88)">
</stop>
<stop offset="100%" stop-color="rgb(9,175,88)">
</stop>
</linearGradient>
<mask id="__lottie_element_50_1" mask-type="alpha">
<use xlink:href="#__lottie_element_50">
</use>
</mask>
<g id="__lottie_element_61">
<g style="display: none;" transform="matrix(2,0,0,2,377.5090026855469,610.3330078125)" opacity="1">
<g opacity="1" transform="matrix(1,0,0,1,0,0)">
<path fill="rgb(183,183,183)" fill-opacity="1" d=" M39.48105239868164,0.3907380998134613 C39.48105239868164,0.3907380998134613 38.69805145263672,-0.029261887073516846 38.69805145263672,-0.029261887073516846 C38.69805145263672,-0.029261887073516846 -40.75600051879883,-0.03200000151991844 -40.75600051879883,-0.03200000151991844 C-40.75600051879883,-0.03200000151991844 -41.53900146484375,0.3880000114440918 -41.53900146484375,0.3880000114440918 C-41.53900146484375,0.3880000114440918 -78.84341430664062,68.80294799804688 -78.84341430664062,68.80294799804688 C-78.84341430664062,68.80294799804688 -78.82911682128906,69.09796905517578 -78.82941436767578,69.10294342041016 C-77.66089630126953,69.79265594482422 -76.16263580322266,70.33489227294922 -74.65843963623047,70.33489227294922 C-74.65843963623047,70.33489227294922 -7.157097339630127,70.33300018310547 -7.157097339630127,70.33300018310547 C-4.14966344833374,70.33300018310547 -1.2517776489257812,68.442626953125 0.25146421790122986,65.93595123291016 C0.25146421790122986,65.93595123291016 39.3050537109375,0.3907380998134613 39.3050537109375,0.3907380998134613 C39.3050537109375,0.3907380998134613 39.48105239868164,0.3907380998134613 39.48105239868164,0.3907380998134613z">
</path>
</g>
</g>
</g>
<clipPath id="__lottie_element_65">
<path d="M0,0 L1080,0 L1080,1080 L0,1080z">
</path>
</clipPath>
<linearGradient id="__lottie_element_71" spreadMethod="pad" gradientUnits="userSpaceOnUse" x1="324.50799560546875" y1="96.10800170898438" x2="135.41099548339844" y2="-243">
<stop offset="0%" stop-color="rgb(191,249,180)">
</stop>
<stop offset="50%" stop-color="rgb(159,244,140)">
</stop>
<stop offset="100%" stop-color="rgb(128,238,100)">
</stop>
</linearGradient>
<mask id="__lottie_element_61_1" mask-type="alpha">
<use xlink:href="#__lottie_element_61">
</use>
</mask>
<g id="__lottie_element_78">
<g style="display: block;" transform="matrix(2,0,0,2,377.5090026855469,610.3330078125)" opacity="1">
<g opacity="1" transform="matrix(1,0,0,1,0,0)">
<path fill="rgb(183,183,183)" fill-opacity="1" d=" M80.88300323486328,-70.33300018310547 C80.88300323486328,-70.33300018310547 79.87000274658203,-71.25 79.87000274658203,-71.25 C79.87000274658203,-71.25 0.24500000476837158,-71.25 0.24500000476837158,-71.25 C0.24500000476837158,-71.25 -0.9139999747276306,-70.33300018310547 -0.9139999747276306,-70.33300018310547 C-0.9139999747276306,-70.33300018310547 -80.91400146484375,68.447998046875 -80.91400146484375,68.447998046875 C-80.91400146484375,68.447998046875 -80.88300323486328,69.10199737548828 -80.88300323486328,69.10199737548828 C-79.6520004272461,69.80599975585938 -78.07099914550781,70.33300018310547 -76.48799896240234,70.33300018310547 C-76.48799896240234,70.33300018310547 -5.452000141143799,70.33300018310547 -5.452000141143799,70.33300018310547 C-2.2869999408721924,70.33300018310547 0.5270000100135803,68.57499694824219 2.1089999675750732,65.93699645996094 C2.1089999675750732,65.93699645996094 80.70700073242188,-70.33300018310547 80.70700073242188,-70.33300018310547 C80.70700073242188,-70.33300018310547 80.88300323486328,-70.33300018310547 80.88300323486328,-70.33300018310547z">
</path>
</g>
</g>
</g>
<clipPath id="__lottie_element_82">
<path d="M0,0 L1080,0 L1080,1080 L0,1080z">
</path>
</clipPath>
<linearGradient id="__lottie_element_88" spreadMethod="pad" gradientUnits="userSpaceOnUse" x1="324.50799560546875" y1="96.10800170898438" x2="135.41099548339844" y2="-243">
<stop offset="0%" stop-color="rgb(191,249,180)">
</stop>
<stop offset="50%" stop-color="rgb(159,244,140)">
</stop>
<stop offset="100%" stop-color="rgb(128,238,100)">
</stop>
</linearGradient>
<mask id="__lottie_element_78_1" mask-type="alpha">
<use xlink:href="#__lottie_element_78">
</use>
</mask>
<g id="__lottie_element_89">
<g style="display: block;" transform="matrix(2,0,0,2,256.4020080566406,540.0020141601562)" opacity="1">
<g opacity="1" transform="matrix(1,0,0,1,0,0)">
<path fill="rgb(57,57,57)" fill-opacity="1" d=" M60.20100021362305,-35.16600036621094 C60.20100021362305,-35.16600036621094 60.595001220703125,-35.95600128173828 60.595001220703125,-35.95600128173828 C60.595001220703125,-35.95600128173828 21.555999755859375,-104.25499725341797 21.555999755859375,-104.25499725341797 C21.555999755859375,-104.25499725341797 20.28700065612793,-104.26899719238281 20.28700065612793,-104.26899719238281 C19.055999755859375,-103.56600189208984 17.825000762939453,-102.33499908447266 17.121999740600586,-101.10399627685547 C17.121999740600586,-101.10399627685547 -60.70199966430664,35.520999908447266 -60.70199966430664,35.520999908447266 C-60.70199966430664,35.520999908447266 -60.70199966430664,35.50199890136719 -60.70199966430664,35.50199890136719 C-60.70199966430664,35.50199890136719 -23.496000289916992,101.10399627685547 -23.496000289916992,101.10399627685547 C-22.792999267578125,102.51100158691406 -21.562000274658203,103.56600189208984 -20.33099937438965,104.26899719238281 C-20.33099937438965,104.26899719238281 -19.79800033569336,103.34700012207031 -19.79800033569336,103.34700012207031 C-19.79800033569336,103.34700012207031 60.20100021362305,-35.16600036621094 60.20100021362305,-35.16600036621094z">
</path>
</g>
</g>
</g>
<clipPath id="__lottie_element_93">
<path d="M0,0 L1080,0 L1080,1080 L0,1080z">
</path>
</clipPath>
<linearGradient id="__lottie_element_99" spreadMethod="pad" gradientUnits="userSpaceOnUse" x1="-349.78399658203125" y1="148.44400024414062" x2="-150.59500122070312" y2="-193.5229949951172">
<stop offset="0%" stop-color="rgb(128,238,100)">
</stop>
<stop offset="9%" stop-color="rgb(125,236,99)">
</stop>
<stop offset="18%" stop-color="rgb(123,235,99)">
</stop>
<stop offset="27%" stop-color="rgb(117,232,98)">
</stop>
<stop offset="36%" stop-color="rgb(111,229,98)">
</stop>
<stop offset="46%" stop-color="rgb(100,223,97)">
</stop>
<stop offset="55%" stop-color="rgb(90,218,96)">
</stop>
<stop offset="64%" stop-color="rgb(75,210,95)">
</stop>
<stop offset="74%" stop-color="rgb(61,202,93)">
</stop>
<stop offset="83%" stop-color="rgb(43,193,91)">
</stop>
<stop offset="93%" stop-color="rgb(24,183,89)">
</stop>
<stop offset="96%" stop-color="rgb(17,179,88)">
</stop>
<stop offset="100%" stop-color="rgb(9,175,88)">
</stop>
</linearGradient>
<mask id="__lottie_element_89_1" mask-type="alpha">
<use xlink:href="#__lottie_element_89">
</use>
</mask>
<clipPath id="__lottie_element_101">
<path d="M0,0 L1080,0 L1080,1080 L0,1080z">
</path>
</clipPath>
<g id="__lottie_element_104">
<g style="display: none;" transform="matrix(2,0,0,2,415.79736328125,403.33892822265625)" opacity="1">
<g opacity="1" transform="matrix(1,0,0,1,0,0)">
<path fill="rgb(182,182,182)" fill-opacity="1" d=" M-20.65999984741211,35.16699981689453 C-20.65999984741211,35.16699981689453 60.57500076293945,35.16699981689453 60.57500076293945,35.16699981689453 C60.57500076293945,35.16699981689453 22.41900062561035,-30.770999908447266 22.41900062561035,-30.770999908447266 C20.836000442504883,-33.40800094604492 18.023000717163086,-35.16699981689453 14.857999801635742,-35.16699981689453 C14.857999801635742,-35.16699981689453 -56.17900085449219,-35.16699981689453 -56.17900085449219,-35.16699981689453 C-57.762001037597656,-35.16699981689453 -59.34400177001953,-34.814998626708984 -60.57500076293945,-33.93600082397461 C-60.57500076293945,-33.93600082397461 -20.65999984741211,35.16699981689453 -20.65999984741211,35.16699981689453z">
</path>
</g>
</g>
</g>
<clipPath id="__lottie_element_108">
<path d="M0,0 L1080,0 L1080,1080 L0,1080z">
</path>
</clipPath>
<linearGradient id="__lottie_element_114" spreadMethod="pad" gradientUnits="userSpaceOnUse" x1="324.50799560546875" y1="96.10800170898438" x2="135.41099548339844" y2="-243">
<stop offset="0%" stop-color="rgb(191,249,180)">
</stop>
<stop offset="50%" stop-color="rgb(159,244,140)">
</stop>
<stop offset="100%" stop-color="rgb(128,238,100)">
</stop>
</linearGradient>
<mask id="__lottie_element_104_1" mask-type="alpha">
<use xlink:href="#__lottie_element_104">
</use>
</mask>
<g id="__lottie_element_118">
<g style="display: none;" transform="matrix(2,0,0,2,256.4020080566406,540.0020141601562)" opacity="1">
<g opacity="1" transform="matrix(1,0,0,1,0,0)">
<path fill="rgb(57,57,57)" fill-opacity="1" d=" M59.05133819580078,-33.16081619262695 C59.05133819580078,-33.16081619262695 59.437835693359375,-33.94119644165039 59.437835693359375,-33.94119644165039 C59.437835693359375,-33.94119644165039 20.3880558013916,-102.24797821044922 20.3880558013916,-102.24797821044922 C20.3880558013916,-102.24797821044922 19.13733673095703,-102.26378631591797 19.13733673095703,-102.26378631591797 C17.906335830688477,-101.560791015625 16.675336837768555,-100.32978820800781 15.972336769104004,-99.09878540039062 C15.972336769104004,-99.09878540039062 -59.013999938964844,30.770999908447266 -59.013999938964844,30.770999908447266 C-60.59700012207031,33.409000396728516 -60.59700012207031,36.92499923706055 -59.013999938964844,39.5629997253418 C-59.013999938964844,39.5629997253418 -23.496000289916992,101.10399627685547 -23.496000289916992,101.10399627685547 C-22.792999267578125,102.51100158691406 -21.562000274658203,103.56600189208984 -20.33099937438965,104.26899719238281 C-20.33099937438965,104.26899719238281 59.05133819580078,-33.16081619262695 59.05133819580078,-33.16081619262695z">
</path>
</g>
</g>
</g>
<clipPath id="__lottie_element_122">
<path d="M0,0 L1080,0 L1080,1080 L0,1080z">
</path>
</clipPath>
<linearGradient id="__lottie_element_128" spreadMethod="pad" gradientUnits="userSpaceOnUse" x1="-356.41748046875" y1="150.14012145996094" x2="-142.411376953125" y2="-191.48236083984375">
<stop offset="0%" stop-color="rgb(128,238,100)">
</stop>
<stop offset="9%" stop-color="rgb(125,236,99)">
</stop>
<stop offset="18%" stop-color="rgb(123,235,99)">
</stop>
<stop offset="27%" stop-color="rgb(117,232,98)">
</stop>
<stop offset="36%" stop-color="rgb(111,229,98)">
</stop>
<stop offset="46%" stop-color="rgb(100,223,97)">
</stop>
<stop offset="55%" stop-color="rgb(90,218,96)">
</stop>
<stop offset="64%" stop-color="rgb(75,210,95)">
</stop>
<stop offset="74%" stop-color="rgb(61,202,93)">
</stop>
<stop offset="83%" stop-color="rgb(43,193,91)">
</stop>
<stop offset="93%" stop-color="rgb(24,183,89)">
</stop>
<stop offset="96%" stop-color="rgb(17,179,88)">
</stop>
<stop offset="100%" stop-color="rgb(9,175,88)">
</stop>
</linearGradient>
<mask id="__lottie_element_118_1" mask-type="alpha">
<use xlink:href="#__lottie_element_118">
</use>
</mask>
<g id="__lottie_element_129">
<g style="display: none;" transform="matrix(2,0,0,2,256.4020080566406,540.0020141601562)" opacity="1">
<g opacity="1" transform="matrix(1,0,0,1,0,0)">
<path fill="rgb(57,57,57)" fill-opacity="1" d=" M23.135547637939453,35.687110900878906 C23.135547637939453,35.687110900878906 23.252099990844727,35.23955154418945 23.252099990844727,35.23955154418945 C23.252099990844727,35.23955154418945 -17.698753356933594,-33.39309310913086 -17.698753356933594,-33.39309310913086 C-17.698753356933594,-33.39309310913086 -18.290637969970703,-33.46492004394531 -18.290637969970703,-33.46492004394531 C-19.46035385131836,-32.79691696166992 -20.62897491455078,-31.628297805786133 -21.296977996826172,-30.458581924438477 C-21.296977996826172,-30.458581924438477 -58.51616287231445,31.00747299194336 -58.51616287231445,31.00747299194336 C-60.020355224609375,33.51414489746094 -60.02657699584961,36.85097122192383 -58.52238464355469,39.357643127441406 C-58.52238464355469,39.357643127441406 -21.289926528930664,101.32180786132812 -21.289926528930664,101.32180786132812 C-20.621925354003906,102.65876007080078 -19.447330474853516,103.66108703613281 -18.27761459350586,104.32908630371094 C-18.27761459350586,104.32908630371094 23.135547637939453,35.687110900878906 23.135547637939453,35.687110900878906z">
</path>
</g>
</g>
</g>
<clipPath id="__lottie_element_133">
<path d="M0,0 L1080,0 L1080,1080 L0,1080z">
</path>
</clipPath>
<linearGradient id="__lottie_element_139" spreadMethod="pad" gradientUnits="userSpaceOnUse" x1="-582.7495727539062" y1="216.3616485595703" x2="132.23162841796875" y2="-128.53155517578125">
<stop offset="0%" stop-color="rgb(128,238,100)">
</stop>
<stop offset="9%" stop-color="rgb(125,236,99)">
</stop>
<stop offset="18%" stop-color="rgb(123,235,99)">
</stop>
<stop offset="27%" stop-color="rgb(117,232,98)">
</stop>
<stop offset="36%" stop-color="rgb(111,229,98)">
</stop>
<stop offset="46%" stop-color="rgb(100,223,97)">
</stop>
<stop offset="55%" stop-color="rgb(90,218,96)">
</stop>
<stop offset="64%" stop-color="rgb(75,210,95)">
</stop>
<stop offset="74%" stop-color="rgb(61,202,93)">
</stop>
<stop offset="83%" stop-color="rgb(43,193,91)">
</stop>
<stop offset="93%" stop-color="rgb(24,183,89)">
</stop>
<stop offset="96%" stop-color="rgb(17,179,88)">
</stop>
<stop offset="100%" stop-color="rgb(9,175,88)">
</stop>
</linearGradient>
<mask id="__lottie_element_129_1" mask-type="alpha">
<use xlink:href="#__lottie_element_129">
</use>
</mask>
<g id="__lottie_element_140">
<g style="display: none;" transform="matrix(1,0,0,1,540,540)" opacity="1">
<g opacity="1" transform="matrix(1,0,0,1,0,0)">
<path fill="rgb(57,57,57)" fill-opacity="1" d=" M-205.592529296875,-69 C-205.592529296875,-69 -321.15118408203125,71 -321.15118408203125,71 C-321.15118408203125,71 -205.592529296875,211 -205.592529296875,211 C-205.592529296875,211 -93.10440826416016,71 -93.10440826416016,71 C-93.10440826416016,71 -205.592529296875,-69 -205.592529296875,-69z">
</path>
<path stroke-linecap="butt" stroke-linejoin="miter" fill-opacity="0" stroke-miterlimit="4" stroke="rgb(255,255,255)" stroke-opacity="1" stroke-width="0" d=" M-205.592529296875,-69 C-205.592529296875,-69 -321.15118408203125,71 -321.15118408203125,71 C-321.15118408203125,71 -205.592529296875,211 -205.592529296875,211 C-205.592529296875,211 -93.10440826416016,71 -93.10440826416016,71 C-93.10440826416016,71 -205.592529296875,-69 -205.592529296875,-69z">
</path>
</g>
</g>
</g>
<clipPath id="__lottie_element_144">
<path d="M0,0 L1080,0 L1080,1080 L0,1080z">
</path>
</clipPath>
<linearGradient id="__lottie_element_150" spreadMethod="pad" gradientUnits="userSpaceOnUse" x1="-542.6483154296875" y1="439.0598449707031" x2="-45.013328552246094" y2="-327.09552001953125">
<stop offset="0%" stop-color="rgb(128,238,100)">
</stop>
<stop offset="9%" stop-color="rgb(125,236,99)">
</stop>
<stop offset="18%" stop-color="rgb(123,235,99)">
</stop>
<stop offset="27%" stop-color="rgb(117,232,98)">
</stop>
<stop offset="36%" stop-color="rgb(111,229,98)">
</stop>
<stop offset="46%" stop-color="rgb(100,223,97)">
</stop>
<stop offset="55%" stop-color="rgb(90,218,96)">
</stop>
<stop offset="64%" stop-color="rgb(75,210,95)">
</stop>
<stop offset="74%" stop-color="rgb(61,202,93)">
</stop>
<stop offset="83%" stop-color="rgb(43,193,91)">
</stop>
<stop offset="93%" stop-color="rgb(24,183,89)">
</stop>
<stop offset="96%" stop-color="rgb(17,179,88)">
</stop>
<stop offset="100%" stop-color="rgb(9,175,88)">
</stop>
</linearGradient>
<mask id="__lottie_element_140_1" mask-type="alpha">
<use xlink:href="#__lottie_element_140">
</use>
</mask>
<g id="__lottie_element_154">
<g style="display: none;" transform="matrix(2,0,0,2,336.3210144042969,540.8880004882812)" opacity="1">
<g opacity="1" transform="matrix(1,0,0,1,0,0)">
<path fill="rgb(182,182,182)" fill-opacity="1" d=" M-20.585323333740234,35.16625213623047 C-20.585323333740234,35.16625213623047 60.095829010009766,35.16625213623047 60.095829010009766,35.16625213623047 C60.095829010009766,35.16625213623047 20.34674644470215,-30.97635841369629 20.34674644470215,-30.97635841369629 C18.842554092407227,-33.482078552246094 16.17278289794922,-35.16560745239258 13.165348052978516,-35.16560745239258 C13.165348052978516,-35.16560745239258 -54.336997985839844,-35.1545524597168 -54.336997985839844,-35.1545524597168 C-55.841190338134766,-35.1545524597168 -57.34547805786133,-34.821022033691406 -58.515193939208984,-33.985782623291016 C-58.515193939208984,-33.985782623291016 -20.585323333740234,35.16625213623047 -20.585323333740234,35.16625213623047z">
</path>
</g>
</g>
</g>
<clipPath id="__lottie_element_158">
<path d="M0,0 L1080,0 L1080,1080 L0,1080z">
</path>
</clipPath>
<linearGradient id="__lottie_element_164" spreadMethod="pad" gradientUnits="userSpaceOnUse" x1="324.50799560546875" y1="96.10800170898438" x2="135.41099548339844" y2="-243">
<stop offset="0%" stop-color="rgb(191,249,180)">
</stop>
<stop offset="50%" stop-color="rgb(159,244,140)">
</stop>
<stop offset="100%" stop-color="rgb(128,238,100)">
</stop>
</linearGradient>
<mask id="__lottie_element_154_1" mask-type="alpha">
<use xlink:href="#__lottie_element_154">
</use>
</mask>
<g id="__lottie_element_165">
<g style="display: block;" transform="matrix(2,0,0,2,418.11199951171875,399.3330078125)" opacity="1">
<g opacity="1" transform="matrix(1,0,0,1,0,0)">
<path fill="rgb(182,182,182)" fill-opacity="1" d=" M-20.65999984741211,35.16699981689453 C-20.65999984741211,35.16699981689453 60.57500076293945,35.16699981689453 60.57500076293945,35.16699981689453 C60.57500076293945,35.16699981689453 22.41900062561035,-30.770999908447266 22.41900062561035,-30.770999908447266 C20.836000442504883,-33.40800094604492 18.023000717163086,-35.16699981689453 14.857999801635742,-35.16699981689453 C14.857999801635742,-35.16699981689453 -56.17900085449219,-35.16699981689453 -56.17900085449219,-35.16699981689453 C-57.762001037597656,-35.16699981689453 -59.34400177001953,-34.814998626708984 -60.57500076293945,-33.93600082397461 C-60.57500076293945,-33.93600082397461 -20.65999984741211,35.16699981689453 -20.65999984741211,35.16699981689453z">
</path>
</g>
</g>
</g>
<clipPath id="__lottie_element_169">
<path d="M0,0 L1080,0 L1080,1080 L0,1080z">
</path>
</clipPath>
<linearGradient id="__lottie_element_175" spreadMethod="pad" gradientUnits="userSpaceOnUse" x1="324.50799560546875" y1="96.10800170898438" x2="135.41099548339844" y2="-243">
<stop offset="0%" stop-color="rgb(191,249,180)">
</stop>
<stop offset="50%" stop-color="rgb(159,244,140)">
</stop>
<stop offset="100%" stop-color="rgb(128,238,100)">
</stop>
</linearGradient>
<mask id="__lottie_element_165_1" mask-type="alpha">
<use xlink:href="#__lottie_element_165">
</use>
</mask>
<g id="__lottie_element_179">
<g style="display: block;" transform="matrix(2,0,0,2,256.4020080566406,540.0020141601562)" opacity="1">
<g opacity="1" transform="matrix(1,0,0,1,0,0)">
<path fill="rgb(57,57,57)" fill-opacity="1" d=" M60.20100021362305,-35.16600036621094 C60.20100021362305,-35.16600036621094 60.595001220703125,-35.95600128173828 60.595001220703125,-35.95600128173828 C60.595001220703125,-35.95600128173828 21.555999755859375,-104.25499725341797 21.555999755859375,-104.25499725341797 C21.555999755859375,-104.25499725341797 20.28700065612793,-104.26899719238281 20.28700065612793,-104.26899719238281 C19.055999755859375,-103.56600189208984 17.825000762939453,-102.33499908447266 17.121999740600586,-101.10399627685547 C17.121999740600586,-101.10399627685547 -59.013999938964844,30.770999908447266 -59.013999938964844,30.770999908447266 C-60.59700012207031,33.409000396728516 -60.59700012207031,36.92499923706055 -59.013999938964844,39.5629997253418 C-59.013999938964844,39.5629997253418 -23.496000289916992,101.10399627685547 -23.496000289916992,101.10399627685547 C-22.792999267578125,102.51100158691406 -21.562000274658203,103.56600189208984 -20.33099937438965,104.26899719238281 C-20.33099937438965,104.26899719238281 -19.79800033569336,103.34700012207031 -19.79800033569336,103.34700012207031 C-19.79800033569336,103.34700012207031 60.20100021362305,-35.16600036621094 60.20100021362305,-35.16600036621094z">
</path>
</g>
</g>
</g>
<clipPath id="__lottie_element_183">
<path d="M0,0 L1080,0 L1080,1080 L0,1080z">
</path>
</clipPath>
<linearGradient id="__lottie_element_189" spreadMethod="pad" gradientUnits="userSpaceOnUse" x1="-349.78399658203125" y1="148.44400024414062" x2="-150.59500122070312" y2="-193.5229949951172">
<stop offset="0%" stop-color="rgb(128,238,100)">
</stop>
<stop offset="9%" stop-color="rgb(125,236,99)">
</stop>
<stop offset="18%" stop-color="rgb(123,235,99)">
</stop>
<stop offset="27%" stop-color="rgb(117,232,98)">
</stop>
<stop offset="36%" stop-color="rgb(111,229,98)">
</stop>
<stop offset="46%" stop-color="rgb(100,223,97)">
</stop>
<stop offset="55%" stop-color="rgb(90,218,96)">
</stop>
<stop offset="64%" stop-color="rgb(75,210,95)">
</stop>
<stop offset="74%" stop-color="rgb(61,202,93)">
</stop>
<stop offset="83%" stop-color="rgb(43,193,91)">
</stop>
<stop offset="93%" stop-color="rgb(24,183,89)">
</stop>
<stop offset="96%" stop-color="rgb(17,179,88)">
</stop>
<stop offset="100%" stop-color="rgb(9,175,88)">
</stop>
</linearGradient>
<mask id="__lottie_element_179_1" mask-type="alpha">
<use xlink:href="#__lottie_element_179">
</use>
</mask>
</defs>
<g clip-path="url(#__lottie_element_2)">
<g clip-path="url(#__lottie_element_7)" style="display: block;" transform="matrix(0.6499999761581421,0,0,0.6499999761581421,-85.449951171875,-212.9749755859375)" opacity="1">
<g clip-path="url(#__lottie_element_101)" style="display: block;" transform="matrix(1,0,0,1,0,0)" opacity="1">
<g style="display: block;" mask="url(#__lottie_element_179_1)">
<g clip-path="url(#__lottie_element_183)" transform="matrix(1,0,0,1,0,0)" opacity="1">
<g style="display: block;" transform="matrix(1,0,0,1,540,540)" opacity="1">
<g opacity="1" transform="matrix(1,0,0,1,0,0)">
<path fill="url(#__lottie_element_189)" fill-opacity="1" d=" M0,-540 C298.0260009765625,-540 540,-298.0260009765625 540,0 C540,298.0260009765625 298.0260009765625,540 0,540 C-298.0260009765625,540 -540,298.0260009765625 -540,0 C-540,-298.0260009765625 -298.0260009765625,-540 0,-540z">
</path>
</g>
</g>
</g>
</g>
<g style="display: block;" transform="matrix(2,0,0,2,377.5090026855469,610.3330078125)" opacity="1">
<g opacity="1" transform="matrix(1,0,0,1,0,0)">
<path fill="rgb(9,175,88)" fill-opacity="1" d=" M80.88300323486328,-70.33300018310547 C80.88300323486328,-70.33300018310547 79.87000274658203,-71.25 79.87000274658203,-71.25 C79.87000274658203,-71.25 0.24500000476837158,-71.25 0.24500000476837158,-71.25 C0.24500000476837158,-71.25 -0.9139999747276306,-70.33300018310547 -0.9139999747276306,-70.33300018310547 C-0.9139999747276306,-70.33300018310547 -80.91400146484375,68.447998046875 -80.91400146484375,68.447998046875 C-80.91400146484375,68.447998046875 -80.88300323486328,69.10199737548828 -80.88300323486328,69.10199737548828 C-79.6520004272461,69.80599975585938 -78.07099914550781,70.33300018310547 -76.48799896240234,70.33300018310547 C-76.48799896240234,70.33300018310547 -5.452000141143799,70.33300018310547 -5.452000141143799,70.33300018310547 C-2.2869999408721924,70.33300018310547 0.5270000100135803,68.57499694824219 2.1089999675750732,65.93699645996094 C2.1089999675750732,65.93699645996094 80.70700073242188,-70.33300018310547 80.70700073242188,-70.33300018310547 C80.70700073242188,-70.33300018310547 80.88300323486328,-70.33300018310547 80.88300323486328,-70.33300018310547z">
</path>
</g>
</g>
<g style="display: block;" mask="url(#__lottie_element_165_1)">
<g clip-path="url(#__lottie_element_169)" transform="matrix(1,0,0,1,0,0)" opacity="1">
<g style="display: block;" transform="matrix(1,0,0,1,540,540)" opacity="1">
<g opacity="1" transform="matrix(1,0,0,1,0,0)">
<path fill="url(#__lottie_element_175)" fill-opacity="1" d=" M0,-540 C298.0260009765625,-540 540,-298.0260009765625 540,0 C540,298.0260009765625 298.0260009765625,540 0,540 C-298.0260009765625,540 -540,298.0260009765625 -540,0 C-540,-298.0260009765625 -298.0260009765625,-540 0,-540z">
</path>
</g>
</g>
</g>
</g>
<g style="display: none;" mask="url(#__lottie_element_154_1)">
<g clip-path="url(#__lottie_element_158)" transform="matrix(1,0,0,1,0,0)" opacity="1">
<g style="display: block;" transform="matrix(-0.5297912955284119,0.8481280207633972,-0.8481280207633972,-0.5297912955284119,540,540)" opacity="1">
<g opacity="1" transform="matrix(1,0,0,1,0,0)">
<path fill="url(#__lottie_element_164)" fill-opacity="1" d=" M0,-540 C298.0260009765625,-540 540,-298.0260009765625 540,0 C540,298.0260009765625 298.0260009765625,540 0,540 C-298.0260009765625,540 -540,298.0260009765625 -540,0 C-540,-298.0260009765625 -298.0260009765625,-540 0,-540z">
</path>
</g>
</g>
</g>
</g>
<g style="display: none;" transform="matrix(2,0,0,2,377.5090026855469,610.3330078125)" opacity="1">
<g opacity="1" transform="matrix(1,0,0,1,0,0)">
<path fill="rgb(56,199,92)" fill-opacity="1" d=" M39.48105239868164,0.3907380998134613 C39.48105239868164,0.3907380998134613 38.69805145263672,-0.029261887073516846 38.69805145263672,-0.029261887073516846 C38.69805145263672,-0.029261887073516846 -40.75600051879883,-0.03200000151991844 -40.75600051879883,-0.03200000151991844 C-40.75600051879883,-0.03200000151991844 -41.53900146484375,0.3880000114440918 -41.53900146484375,0.3880000114440918 C-41.53900146484375,0.3880000114440918 -78.84341430664062,68.80294799804688 -78.84341430664062,68.80294799804688 C-78.84341430664062,68.80294799804688 -78.82911682128906,69.09796905517578 -78.82941436767578,69.10294342041016 C-77.66089630126953,69.79265594482422 -76.16263580322266,70.33489227294922 -74.65843963623047,70.33489227294922 C-74.65843963623047,70.33489227294922 -7.157097339630127,70.33300018310547 -7.157097339630127,70.33300018310547 C-4.14966344833374,70.33300018310547 -1.2517776489257812,68.442626953125 0.25146421790122986,65.93595123291016 C0.25146421790122986,65.93595123291016 39.3050537109375,0.3907380998134613 39.3050537109375,0.3907380998134613 C39.3050537109375,0.3907380998134613 39.48105239868164,0.3907380998134613 39.48105239868164,0.3907380998134613z">
</path>
</g>
</g>
<g style="display: none;" mask="url(#__lottie_element_140_1)">
<g clip-path="url(#__lottie_element_144)" transform="matrix(1,0,0,1,0,0)" opacity="1">
<g style="display: block;" transform="matrix(-0.9990827441215515,-0.042821355164051056,0.042821355164051056,-0.9990827441215515,540,540)" opacity="1">
<g opacity="1" transform="matrix(1,0,0,1,0,0)">
<path fill="url(#__lottie_element_150)" fill-opacity="1" d=" M0,-540 C298.0260009765625,-540 540,-298.0260009765625 540,0 C540,298.0260009765625 298.0260009765625,540 0,540 C-298.0260009765625,540 -540,298.0260009765625 -540,0 C-540,-298.0260009765625 -298.0260009765625,-540 0,-540z">
</path>
</g>
</g>
</g>
</g>
<g style="display: none;" mask="url(#__lottie_element_129_1)">
<g clip-path="url(#__lottie_element_133)" transform="matrix(1,0,0,1,0,0)" opacity="1">
<g style="display: block;" transform="matrix(-0.5297912955284119,-0.8481280207633972,0.8481280207633972,-0.5297912955284119,540,540)" opacity="1">
<g opacity="1" transform="matrix(1,0,0,1,0,0)">
<path fill="url(#__lottie_element_139)" fill-opacity="1" d=" M0,-540 C298.0260009765625,-540 540,-298.0260009765625 540,0 C540,298.0260009765625 298.0260009765625,540 0,540 C-298.0260009765625,540 -540,298.0260009765625 -540,0 C-540,-298.0260009765625 -298.0260009765625,-540 0,-540z">
</path>
</g>
</g>
</g>
</g>
<g style="display: none;" mask="url(#__lottie_element_118_1)">
<g clip-path="url(#__lottie_element_122)" transform="matrix(1,0,0,1,0,0)" opacity="1">
<g style="display: block;" transform="matrix(0.998244047164917,-0.05923544988036156,0.05923544988036156,0.998244047164917,540,540)" opacity="1">
<g opacity="1" transform="matrix(1,0,0,1,0,0)">
<path fill="url(#__lottie_element_128)" fill-opacity="1" d=" M0,-540 C298.0260009765625,-540 540,-298.0260009765625 540,0 C540,298.0260009765625 298.0260009765625,540 0,540 C-298.0260009765625,540 -540,298.0260009765625 -540,0 C-540,-298.0260009765625 -298.0260009765625,-540 0,-540z">
</path>
</g>
</g>
</g>
</g>
<g style="display: none;" transform="matrix(2,0,0,2,377.5090026855469,610.3330078125)" opacity="1">
<g opacity="1" transform="matrix(1,0,0,1,0,0)">
<path fill="rgb(10,175,88)" fill-opacity="1" d=" M79.7247314453125,-68.33163452148438 C79.7247314453125,-68.33163452148438 78.7182388305664,-69.23457336425781 78.7182388305664,-69.23457336425781 C78.7182388305664,-69.23457336425781 -0.9153041243553162,-69.23457336425781 -0.9153041243553162,-69.23457336425781 C-0.9153041243553162,-69.23457336425781 -2.0636634826660156,-68.33163452148438 -2.0636634826660156,-68.33163452148438 C-2.0636634826660156,-68.33163452148438 -80.91352081298828,68.45801544189453 -80.91352081298828,68.45801544189453 C-80.91352081298828,68.45801544189453 -80.88300323486328,69.10199737548828 -80.88300323486328,69.10199737548828 C-79.6520004272461,69.80599975585938 -78.07099914550781,70.33300018310547 -76.48799896240234,70.33300018310547 C-76.48799896240234,70.33300018310547 -5.452000141143799,70.33300018310547 -5.452000141143799,70.33300018310547 C-2.2869999408721924,70.33300018310547 0.5270000100135803,68.57499694824219 2.1089999675750732,65.93699645996094 C2.1089999675750732,65.93699645996094 79.54873657226562,-68.33163452148438 79.54873657226562,-68.33163452148438 C79.54873657226562,-68.33163452148438 79.7247314453125,-68.33163452148438 79.7247314453125,-68.33163452148438z">
</path>
</g>
</g>
<g style="display: none;" mask="url(#__lottie_element_104_1)">
<g clip-path="url(#__lottie_element_108)" transform="matrix(1,0,0,1,0,0)" opacity="1">
<g style="display: block;" transform="matrix(0.998244047164917,0.05923544988036156,-0.05923544988036156,0.998244047164917,540,540)" opacity="1">
<g opacity="1" transform="matrix(1,0,0,1,0,0)">
<path fill="url(#__lottie_element_114)" fill-opacity="1" d=" M0,-540 C298.0260009765625,-540 540,-298.0260009765625 540,0 C540,298.0260009765625 298.0260009765625,540 0,540 C-298.0260009765625,540 -540,298.0260009765625 -540,0 C-540,-298.0260009765625 -298.0260009765625,-540 0,-540z">
</path>
</g>
</g>
</g>
</g>
</g>
<g clip-path="url(#__lottie_element_11)" style="display: block;" transform="matrix(1,0,0,-1,404,1080)" opacity="1">
<g style="display: block;" mask="url(#__lottie_element_89_1)">
<g clip-path="url(#__lottie_element_93)" transform="matrix(1,0,0,-1,0,1080)" opacity="1">
<g style="display: block;" transform="matrix(1,0,0,1,540,540)" opacity="1">
<g opacity="1" transform="matrix(1,0,0,1,0,0)">
<path fill="url(#__lottie_element_99)" fill-opacity="1" d=" M0,-540 C298.0260009765625,-540 540,-298.0260009765625 540,0 C540,298.0260009765625 298.0260009765625,540 0,540 C-298.0260009765625,540 -540,298.0260009765625 -540,0 C-540,-298.0260009765625 -298.0260009765625,-540 0,-540z">
</path>
</g>
</g>
</g>
</g>
<g style="display: block;" mask="url(#__lottie_element_78_1)">
<g clip-path="url(#__lottie_element_82)" transform="matrix(1,0,0,-1,0,1080)" opacity="1">
<g style="display: block;" transform="matrix(1,0,0,1,540,540)" opacity="1">
<g opacity="1" transform="matrix(1,0,0,1,0,0)">
<path fill="url(#__lottie_element_88)" fill-opacity="1" d=" M0,-540 C298.0260009765625,-540 540,-298.0260009765625 540,0 C540,298.0260009765625 298.0260009765625,540 0,540 C-298.0260009765625,540 -540,298.0260009765625 -540,0 C-540,-298.0260009765625 -298.0260009765625,-540 0,-540z">
</path>
</g>
</g>
</g>
</g>
<g style="display: block;" transform="matrix(2,0,0,2,418.11199951171875,399.3330078125)" opacity="1">
<g opacity="1" transform="matrix(1,0,0,1,0,0)">
<path fill="rgb(9,175,88)" fill-opacity="1" d=" M-20.65999984741211,35.16699981689453 C-20.65999984741211,35.16699981689453 60.57500076293945,35.16699981689453 60.57500076293945,35.16699981689453 C60.57500076293945,35.16699981689453 22.41900062561035,-30.770999908447266 22.41900062561035,-30.770999908447266 C20.836000442504883,-33.40800094604492 18.023000717163086,-35.16699981689453 14.857999801635742,-35.16699981689453 C14.857999801635742,-35.16699981689453 -56.17900085449219,-35.16699981689453 -56.17900085449219,-35.16699981689453 C-57.762001037597656,-35.16699981689453 -59.34400177001953,-34.814998626708984 -60.57500076293945,-33.93600082397461 C-60.57500076293945,-33.93600082397461 -20.65999984741211,35.16699981689453 -20.65999984741211,35.16699981689453z">
</path>
</g>
</g>
<g style="display: none;" transform="matrix(2,0,0,2,336.3210144042969,540.8880004882812)" opacity="1">
<g opacity="1" transform="matrix(1,0,0,1,0,0)">
<path fill="rgb(56,199,92)" fill-opacity="1" d=" M-20.585323333740234,35.16625213623047 C-20.585323333740234,35.16625213623047 60.095829010009766,35.16625213623047 60.095829010009766,35.16625213623047 C60.095829010009766,35.16625213623047 20.34674644470215,-30.97635841369629 20.34674644470215,-30.97635841369629 C18.842554092407227,-33.482078552246094 16.17278289794922,-35.16560745239258 13.165348052978516,-35.16560745239258 C13.165348052978516,-35.16560745239258 -54.336997985839844,-35.1545524597168 -54.336997985839844,-35.1545524597168 C-55.841190338134766,-35.1545524597168 -57.34547805786133,-34.821022033691406 -58.515193939208984,-33.985782623291016 C-58.515193939208984,-33.985782623291016 -20.585323333740234,35.16625213623047 -20.585323333740234,35.16625213623047z">
</path>
</g>
</g>
<g style="display: none;" mask="url(#__lottie_element_61_1)">
<g clip-path="url(#__lottie_element_65)" transform="matrix(1,0,0,-1,0,1080)" opacity="1">
<g style="display: block;" transform="matrix(-0.5297912955284119,0.8481280207633972,-0.8481280207633972,-0.5297912955284119,540,540)" opacity="1">
<g opacity="1" transform="matrix(1,0,0,1,0,0)">
<path fill="url(#__lottie_element_71)" fill-opacity="1" d=" M0,-540 C298.0260009765625,-540 540,-298.0260009765625 540,0 C540,298.0260009765625 298.0260009765625,540 0,540 C-298.0260009765625,540 -540,298.0260009765625 -540,0 C-540,-298.0260009765625 -298.0260009765625,-540 0,-540z">
</path>
</g>
</g>
</g>
</g>
<g style="display: none;" mask="url(#__lottie_element_50_1)">
<g clip-path="url(#__lottie_element_54)" transform="matrix(1,0,0,-1,0,1080)" opacity="1">
<g style="display: block;" transform="matrix(-0.9990827441215515,-0.042821355164051056,0.042821355164051056,-0.9990827441215515,540,540)" opacity="1">
<g opacity="1" transform="matrix(1,0,0,1,0,0)">
<path fill="url(#__lottie_element_60)" fill-opacity="1" d=" M0,-540 C298.0260009765625,-540 540,-298.0260009765625 540,0 C540,298.0260009765625 298.0260009765625,540 0,540 C-298.0260009765625,540 -540,298.0260009765625 -540,0 C-540,-298.0260009765625 -298.0260009765625,-540 0,-540z">
</path>
</g>
</g>
</g>
</g>
<g style="display: none;" mask="url(#__lottie_element_39_1)">
<g clip-path="url(#__lottie_element_43)" transform="matrix(1,0,0,-1,0,1080)" opacity="1">
<g style="display: block;" transform="matrix(-0.5297912955284119,-0.8481280207633972,0.8481280207633972,-0.5297912955284119,540,540)" opacity="1">
<g opacity="1" transform="matrix(1,0,0,1,0,0)">
<path fill="url(#__lottie_element_49)" fill-opacity="1" d=" M0,-540 C298.0260009765625,-540 540,-298.0260009765625 540,0 C540,298.0260009765625 298.0260009765625,540 0,540 C-298.0260009765625,540 -540,298.0260009765625 -540,0 C-540,-298.0260009765625 -298.0260009765625,-540 0,-540z">
</path>
</g>
</g>
</g>
</g>
<g style="display: none;" mask="url(#__lottie_element_28_1)">
<g clip-path="url(#__lottie_element_32)" transform="matrix(1,0,0,-1,0,1080)" opacity="1">
<g style="display: block;" transform="matrix(0.998244047164917,-0.05923544988036156,0.05923544988036156,0.998244047164917,540,540)" opacity="1">
<g opacity="1" transform="matrix(1,0,0,1,0,0)">
<path fill="url(#__lottie_element_38)" fill-opacity="1" d=" M0,-540 C298.0260009765625,-540 540,-298.0260009765625 540,0 C540,298.0260009765625 298.0260009765625,540 0,540 C-298.0260009765625,540 -540,298.0260009765625 -540,0 C-540,-298.0260009765625 -298.0260009765625,-540 0,-540z">
</path>
</g>
</g>
</g>
</g>
<g style="display: none;" mask="url(#__lottie_element_17_1)">
<g clip-path="url(#__lottie_element_21)" transform="matrix(1,0,0,-1,0,1080)" opacity="1">
<g style="display: block;" transform="matrix(0.998244047164917,0.05923544988036156,-0.05923544988036156,0.998244047164917,540,540)" opacity="1">
<g opacity="1" transform="matrix(1,0,0,1,0,0)">
<path fill="url(#__lottie_element_27)" fill-opacity="1" d=" M0,-540 C298.0260009765625,-540 540,-298.0260009765625 540,0 C540,298.0260009765625 298.0260009765625,540 0,540 C-298.0260009765625,540 -540,298.0260009765625 -540,0 C-540,-298.0260009765625 -298.0260009765625,-540 0,-540z">
</path>
</g>
</g>
</g>
</g>
<g style="display: none;" transform="matrix(2,0,0,2,415.79736328125,403.33892822265625)" opacity="1">
<g opacity="1" transform="matrix(1,0,0,1,0,0)">
<path fill="rgb(10,175,88)" fill-opacity="1" d=" M-20.65999984741211,35.16699981689453 C-20.65999984741211,35.16699981689453 60.57500076293945,35.16699981689453 60.57500076293945,35.16699981689453 C60.57500076293945,35.16699981689453 22.41900062561035,-30.770999908447266 22.41900062561035,-30.770999908447266 C20.836000442504883,-33.40800094604492 18.023000717163086,-35.16699981689453 14.857999801635742,-35.16699981689453 C14.857999801635742,-35.16699981689453 -56.17900085449219,-35.16699981689453 -56.17900085449219,-35.16699981689453 C-57.762001037597656,-35.16699981689453 -59.34400177001953,-34.814998626708984 -60.57500076293945,-33.93600082397461 C-60.57500076293945,-33.93600082397461 -20.65999984741211,35.16699981689453 -20.65999984741211,35.16699981689453z">
</path>
</g>
</g>
</g>
</g>
<g style="display: block;" transform="matrix(7.78000020980835,0,0,7.78000020980835,-6737.58544921875,-4056.907470703125)" opacity="1">
<path fill="rgb(223,255,221)" fill-opacity="1" d=" M974.68,526.76 C974.68,526.76 980.81,526.76 980.81,526.76 C980.81,526.76 980.81,552.27 980.81,552.27 C980.81,552.27 976.22,552.27 976.22,552.27 C976.22,552.27 976.22,534.09 976.22,534.09 C976.22,534.09 969.16,552.27 969.16,552.27 C969.16,552.27 965.01,552.27 965.01,552.27 C965.01,552.27 957.95,534.06 957.95,534.06 C957.95,534.06 957.95,552.27 957.95,552.27 C957.95,552.27 953.37,552.27 953.37,552.27 C953.37,552.27 953.37,526.76 953.37,526.76 C953.37,526.76 959.5,526.76 959.5,526.76 C959.5,526.76 967.11,546.43 967.11,546.43 C967.11,546.43 974.73,526.76 974.73,526.76 C974.73,526.76 974.68,526.76 974.68,526.76z M1002.73,542.96 C1002.73,544.83 1002.32,546.49 1001.5,547.98 C1000.69,549.44 999.55,550.61 998.09,551.43 C996.63,552.24 994.93,552.65 993.07,552.65 C991.2,552.65 989.45,552.24 987.99,551.4 C986.53,550.55 985.39,549.41 984.57,547.92 C983.75,546.46 983.35,544.8 983.35,542.96 C983.35,541.12 983.75,539.43 984.57,537.97 C985.39,536.51 986.56,535.37 988.02,534.52 C989.48,533.68 991.17,533.27 993.07,533.27 C994.96,533.27 996.63,533.68 998.09,534.49 C999.55,535.31 1000.69,536.48 1001.5,537.94 C1002.32,539.4 1002.73,541.09 1002.73,542.96z M998.32,542.96 C998.32,541.85 998.12,540.83 997.68,539.95 C997.24,539.08 996.63,538.38 995.81,537.91 C995.02,537.44 994.09,537.21 993.07,537.21 C992.04,537.21 991.11,537.44 990.29,537.91 C989.5,538.38 988.86,539.05 988.42,539.92 C987.99,540.8 987.75,541.82 987.75,542.96 C987.75,544.1 987.99,545.12 988.42,545.99 C988.86,546.87 989.5,547.54 990.29,548.01 C991.08,548.48 992.01,548.71 993.07,548.71 C994.12,548.71 994.99,548.48 995.81,548.01 C996.6,547.54 997.24,546.87 997.68,545.99 C998.12,545.12 998.32,544.1 998.32,542.96z M1023.72,526.38 C1023.72,526.38 1023.72,552.24 1023.72,552.24 C1023.72,552.24 1019.31,552.24 1019.31,552.24 C1019.31,552.24 1019.31,550.08 1019.31,550.08 C1018.72,550.87 1017.97,551.48 1017,551.95 C1016.07,552.42 1014.93,552.65 1013.62,552.65 C1011.92,552.65 1010.41,552.24 1009.09,551.45 C1007.78,550.67 1006.76,549.53 1006.03,548.07 C1005.3,546.61 1004.95,544.89 1004.95,542.93 C1004.95,540.97 1005.3,539.31 1006,537.85 C1006.7,536.39 1007.69,535.25 1008.97,534.43 C1010.26,533.62 1011.75,533.21 1013.47,533.21 C1014.81,533.21 1015.95,533.41 1016.92,533.85 C1017.88,534.29 1018.67,534.87 1019.31,535.63 C1019.31,535.63 1019.31,526.29 1019.31,526.29 C1019.31,526.29 1023.72,526.29 1023.72,526.29 C1023.72,526.29 1023.72,526.38 1023.72,526.38z M1019.46,542.96 C1019.46,541.85 1019.25,540.83 1018.84,539.95 C1018.43,539.08 1017.85,538.38 1017.09,537.91 C1016.33,537.44 1015.46,537.21 1014.43,537.21 C1013.35,537.21 1012.45,537.44 1011.69,537.91 C1010.93,538.38 1010.35,539.08 1009.94,539.95 C1009.53,540.83 1009.33,541.85 1009.33,542.96 C1009.33,544.07 1009.53,545.09 1009.94,545.97 C1010.35,546.84 1010.93,547.54 1011.72,548.01 C1012.51,548.48 1013.41,548.71 1014.46,548.71 C1015.51,548.71 1016.33,548.48 1017.09,548.01 C1017.85,547.54 1018.43,546.84 1018.87,545.97 C1019.28,545.09 1019.48,544.07 1019.48,542.96 C1019.48,542.96 1019.46,542.96 1019.46,542.96z M1045.06,533.68 C1045.06,533.68 1045.06,552.27 1045.06,552.27 C1045.06,552.27 1040.65,552.27 1040.65,552.27 C1040.65,552.27 1040.65,550.17 1040.65,550.17 C1040.04,550.96 1039.28,551.57 1038.31,552.01 C1037.38,552.45 1036.24,552.68 1034.93,552.68 C1033.23,552.68 1031.71,552.27 1030.4,551.48 C1029.09,550.69 1028.07,549.56 1027.37,548.1 C1026.64,546.64 1026.29,544.91 1026.29,542.96 C1026.29,541 1026.64,539.34 1027.34,537.88 C1028.04,536.42 1029.03,535.28 1030.31,534.46 C1031.6,533.65 1033.09,533.24 1034.81,533.24 C1036.18,533.24 1037.35,533.47 1038.34,533.94 C1039.33,534.41 1040.09,535.02 1040.65,535.78 C1040.65,535.78 1040.65,533.62 1040.65,533.62 C1040.65,533.62 1045.06,533.62 1045.06,533.62 C1045.06,533.62 1045.06,533.68 1045.06,533.68z M1040.79,542.96 C1040.79,541.85 1040.59,540.83 1040.18,539.95 C1039.77,539.08 1039.19,538.38 1038.43,537.91 C1037.67,537.44 1036.79,537.21 1035.77,537.21 C1034.69,537.21 1033.79,537.44 1033.03,537.91 C1032.27,538.38 1031.69,539.08 1031.28,539.95 C1030.87,540.83 1030.66,541.85 1030.66,542.96 C1030.66,544.07 1030.87,545.09 1031.28,545.97 C1031.69,546.84 1032.27,547.54 1033.06,548.01 C1033.85,548.48 1034.75,548.71 1035.8,548.71 C1036.85,548.71 1037.67,548.48 1038.43,548.01 C1039.19,547.54 1039.77,546.84 1040.21,545.97 C1040.62,545.09 1040.82,544.07 1040.82,542.96 C1040.82,542.96 1040.79,542.96 1040.79,542.96z M1048.73,526.38 C1048.73,526.38 1048.73,552.24 1048.73,552.24 C1048.73,552.24 1053.14,552.24 1053.14,552.24 C1053.14,552.24 1053.14,526.38 1053.14,526.38 C1053.14,526.38 1048.73,526.38 1048.73,526.38z">
</path>
<g opacity="1" transform="matrix(1,0,0,1,960,540)">
<g opacity="1" transform="matrix(1,0,0,1,0,0)">
</g>
</g>
</g>
</g>
</svg>
