<svg xmlns="http://www.w3.org/2000/svg" viewBox="0 0 3020 1100">
  <defs>
    <linearGradient id="b" x1="0" x2="50.9" y1="0" y2="-43.8" gradientTransform="matrix(10 0 0 -10 212 252)" gradientUnits="userSpaceOnUse">
      <stop offset="0" stop-color="#5a9fd4"/>
      <stop offset="1" stop-color="#0e3d65"/>
    </linearGradient>
    <linearGradient id="a" x1="0" x2="-35.1" y1="0" y2="50.9" gradientTransform="matrix(10 0 0 -10 822 905)" gradientUnits="userSpaceOnUse">
      <stop offset="0" stop-color="#ffc700"/>
      <stop offset="1" stop-color="#ffe873"/>
    </linearGradient>
    <filter id="c" color-interpolation-filters="sRGB">
      <feOffset dx="7" dy="5"/>
      <feGaussianBlur result="offset-blur" stdDeviation="4"/>
      <feComposite in="SourceGraphic" in2="offset-blur" operator="out" result="inverse"/>
      <feFlood flood-color="#000" flood-opacity=".7" result="color"/>
      <feComposite in="color" in2="inverse" operator="in" result="shadow"/>
      <feComposite in="shadow" in2="SourceGraphic"/>
    </filter>
  </defs>
  <path fill="#001b30" d="M56 769a545 545 0 1 1 999-438A545 545 0 0 1 56 769Z"/>
  <path fill="url(#a)" d="M745 388v75c0 58-49 107-105 107H471c-46 0-84 39-84 85v160c0 46 40 73 84 86 53 16 105 19 169 0 42-13 84-37 84-86v-64H556v-21h252c50 0 68-35 85-85 17-53 17-104 0-172-12-48-35-85-85-85z"/>
  <path fill="url(#b)" d="M552 207c-29 1-57 4-81 8-71 12-84 38-84 87v64h169v22H324c-49 0-92 30-106 85-15 65-16 105 0 172 12 49 41 85 90 85h58v-78c0-55 48-103 105-103h169c47 0 84-39 84-86V302c0-46-38-80-84-87-29-5-59-8-88-8z"/>
  <path fill="#5297cc" d="m555 40-16 51h-54l44 32-16 50 42-31 43 31-16-50 43-32h-53l-17-51zm-221 60-17 51h-53l43 31-16 51 43-32 43 32-17-51 44-31h-54l-16-51zm443 0-16 51h-54l44 31-16 51 42-32 43 32-16-51 43-31h-53l-17-51zM172 262l-17 51h-53l43 32-16 50 43-31 42 31-16-50 44-32h-54l-16-51zm-60 222-16 51H42l44 31-17 51 43-32 43 32-16-51 43-31h-53l-17-51zm60 222-17 51h-53l43 31-16 51 43-32 42 32-16-51 44-31h-54l-16-51z"/>
  <path fill="#ffe357" d="m939 262-16 51h-54l44 31-17 51 43-32 43 32-16-51 43-31h-53l-17-51zm59 221-16 51h-54l44 31-17 51 43-31 43 31-16-51 43-31h-54l-16-51zm-59 223-16 51h-54l44 31-17 51 43-32 43 32-16-51 43-31h-53l-17-51zM334 868l-16 51h-54l44 31-17 51 43-31 43 31-16-51 43-31h-53l-17-51zm443 0-17 51h-53l43 31-16 51 43-31 43 31-17-51 44-31h-54l-16-51zm-222 59-16 51h-54l44 31-16 51 42-31 43 31-16-51 43-31h-53l-17-51z"/>
  <path d="M2324 711a119 119 0 0 0-14 4l-3 3-2 4-57 151c-5 12-10 23-16 32-5 9-12 16-18 22s-12 10-19 13c-6 3-13 4-19 4a75 75 0 0 1-22-3l-7-4-2-3 2-5a118 118 0 0 1 19-20c6 3 11 5 17 5 5 1 10 0 14-1l7-5 8-8a92 92 0 0 0 15-25l4-12-56-141c-1-3-3-5-6-7-2-2-7-3-12-4v-9h69v9l-11 1-6 2-2 4 1 4 39 101 38-101v-4l-2-3-6-2-10-2v-9h57zm-175 126c-12 10-24 16-34 21-10 4-19 7-25 7l-12-3c-3-2-7-4-10-8-3-3-5-8-7-13l-2-20V719h-22l-4-5 14-12h12v-40l25-20 5 4v56h55l5 5-4 5a85 85 0 0 1-13 13l-12-4-21-2h-10v87l1 16 3 10 6 6 7 1c4 0 9 0 15-2l22-9zm-196-122a35 35 0 0 0-28 13l-8 14-5 19h68l5-1 1-5-1-12-5-13-10-10c-5-3-10-5-17-5zm65 50c-2 3-5 5-9 7l-11 5h-86c0 9 1 17 3 25 2 7 6 14 10 20 4 5 9 10 14 13 6 4 13 5 20 5h10l11-3 13-7 17-12 4 4 3 4-20 20-17 12-16 5-16 2a65 65 0 0 1-47-22c-7-7-11-15-15-25s-6-21-6-33a100 100 0 0 1 10-42 89 89 0 0 1 27-32 77 77 0 0 1 19-10 80 80 0 0 1 22-4l20 2c6 2 11 5 15 8l12 12a71 71 0 0 1 12 30l1 16zm-236 94v-9c7-1 13-3 17-5s6-3 6-5V733c0-4-1-6-3-8-1-2-3-4-7-5l-13-2v-8a247 247 0 0 0 46-13h8v143c0 1 1 3 5 5s10 4 18 5v9zm59-214a25 25 0 0 1-7 18l-7 5-9 2c-5 0-9-2-12-5s-5-7-5-13a25 25 0 0 1 7-17 22 22 0 0 1 16-7c5 0 9 2 12 5 4 2 5 7 5 12zm-79 182c-8 9-14 16-20 20l-16 12-15 5-15 1a65 65 0 0 1-46-21 94 94 0 0 1-14-93 86 86 0 0 1 81-54 81 81 0 0 1 35 7l7 6v7a91 91 0 0 1-7 19l-3 7-8-1-5-10-8-8a40 40 0 0 0-25-8 37 37 0 0 0-30 15c-4 6-8 12-10 20a95 95 0 0 0 0 53c3 8 7 14 11 20 5 5 10 9 16 12s12 4 19 4h9l9-3 11-6 16-12zm-190-44a83 83 0 0 0-15-47c-4-6-9-11-14-15-6-3-11-5-17-5-8 0-15 2-20 5-6 3-10 8-13 13-4 6-6 13-7 20-2 8-3 16-3 25a77 77 0 0 0 30 61c6 3 11 5 16 5 8 0 14-1 19-4 6-3 10-7 14-13 3-5 6-11 7-19 2-8 3-16 3-26zm31-6c0 11-2 22-6 33a86 86 0 0 1-42 47c-10 5-20 8-31 8s-21-2-30-7c-9-4-16-9-23-16a96 96 0 0 1-9-100 91 91 0 0 1 29-33c5-4 12-7 19-9 6-2 13-3 21-3a67 67 0 0 1 53 23c6 7 11 15 14 25 4 10 5 21 5 32zm-179 18a61 61 0 0 1-9 32 74 74 0 0 1-26 26 83 83 0 0 1-44 12l-12-2a129 129 0 0 1-43-15l-1-6-1-13 1-15 2-13 9 1a63 63 0 0 0 22 30 53 53 0 0 0 32 11l15-3c5-2 10-4 14-8 4-3 7-7 9-12 3-4 4-9 4-15 0-7-2-13-5-17-3-5-7-10-12-14l-17-10a806 806 0 0 0-39-19l-17-12c-5-5-9-10-12-16a47 47 0 0 1 0-39c2-6 6-12 12-18 6-5 13-10 22-14s20-5 33-5a112 112 0 0 1 44 9l8 6v5l-3 7a79 79 0 0 1-10 14l-8-1a59 59 0 0 0-20-18 46 46 0 0 0-21-5c-6 0-11 1-15 3l-11 7-6 9-2 10c0 5 1 10 4 14l13 11 17 10 19 10 20 11c7 4 12 8 17 13s9 11 12 17c3 7 5 14 5 22zm1509-323v-9l18-6c3-1 5-3 5-4v-86l-1-16-3-11-7-5-9-1-11 2c-4 1-8 4-13 7l-14 12-16 19v79c0 1 2 3 6 5l18 5v9h-78v-9l18-5c4-2 6-4 6-5V352l-1-10-2-6c-2-2-4-3-7-3l-14-2v-9a161 161 0 0 0 45-13l7 6 2 37a146 146 0 0 1 35-32c6-4 12-6 17-8l15-3 14 2a33 33 0 0 1 20 19c3 5 4 11 4 18v105l1 2 4 2 7 3 11 3v9zm-158-76a83 83 0 0 0-14-47c-4-7-9-11-15-15-5-4-11-5-17-5-8 0-15 1-20 4-5 4-10 8-13 14-3 5-6 12-7 20-2 7-2 16-2 25a77 77 0 0 0 29 60c6 4 11 5 16 5 8 0 14-1 20-4 5-3 10-7 13-12s6-12 8-20l2-25zm32-6c0 11-2 22-7 32a86 86 0 0 1-42 47c-10 6-20 8-30 8a68 68 0 0 1-53-23c-7-7-12-16-15-25a96 96 0 0 1 6-75 91 91 0 0 1 28-32l19-10 21-3a67 67 0 0 1 53 23c6 7 11 16 15 26 3 9 5 20 5 32zm-247 82v-9l18-6c4-1 6-3 6-4v-85l-2-17c0-4-2-8-3-10-2-3-4-5-7-6l-9-1c-8 0-16 3-25 10s-19 17-28 30v79c0 1 2 3 6 5l17 5v9h-77v-9l17-5c4-2 6-4 6-5V242l-3-6-7-3-13-2v-9a372 372 0 0 0 37-9l10-4 7 6v135a144 144 0 0 1 35-30c6-4 11-6 17-8l15-3 14 2a33 33 0 0 1 20 19c2 5 3 11 3 18v105l1 2 4 2 7 3 12 3v9zm-118-22c-12 9-23 16-34 20-10 5-18 7-24 7l-12-2-10-8c-3-4-6-8-7-14-2-5-3-12-3-20V332h-21l-4-5 13-13h12v-40l25-20 6 5v55h54l5 5-3 6a85 85 0 0 1-14 13c-2-2-7-3-12-4l-21-2h-9v86l1 16c0 5 2 8 3 11l5 5 8 2 14-3c6-1 14-4 23-9zm-121-127a119 119 0 0 0-13 5l-4 2-1 5-57 150c-5 13-10 24-16 33l-18 22c-6 5-13 10-19 12-7 3-13 4-19 4a75 75 0 0 1-23-3l-6-3-3-3 3-5a118 118 0 0 1 19-21c5 3 11 5 16 6 6 0 11 0 15-2l7-4 8-9a92 92 0 0 0 14-24l5-12-56-141c-1-4-3-6-6-8l-13-4v-9h69v9l-10 2-6 2c-2 1-2 2-2 3-1 1 0 3 1 5l39 100 37-100 1-5-2-3-6-2-10-2v-9h56zm-349 149v-9l18-5 7-5V272l-13 1-12 2-1-12a262 262 0 0 1 61-9l22-1c13 0 24 1 34 4s19 6 26 11a53 53 0 0 1 23 45 66 66 0 0 1-40 62 79 79 0 0 1-30 7l-15-1-13-4-4-15c4 3 9 4 13 5l12 1 16-3a46 46 0 0 0 25-24c3-6 4-13 4-21 0-9-1-16-5-23-3-6-7-12-12-16-6-4-12-7-20-9-7-3-15-4-23-4l-16 1v184l1 2 5 2 9 3 14 3v9zm-52-76a83 83 0 0 0-14-47c-5-7-9-11-15-15-5-4-11-5-17-5-8 0-15 1-20 4-6 4-10 8-13 14-4 5-6 12-7 20-2 7-2 16-2 25a77 77 0 0 0 29 60c6 4 11 5 16 5 8 0 14-1 20-4 5-3 9-7 13-12 3-5 6-12 7-20 2-7 3-16 3-25zm32-6a94 94 0 0 1-24 61c-7 7-16 14-25 19a72 72 0 0 1-60 1c-9-4-17-10-23-17-7-7-12-16-15-25a96 96 0 0 1 5-75 91 91 0 0 1 29-32l19-10 21-3a67 67 0 0 1 53 23 97 97 0 0 1 20 58zm-172-74 2 6-2 13a164 164 0 0 1-8 28h-9c-1-10-4-16-7-21-3-4-7-7-12-7l-8 3c-3 2-7 4-10 8l-10 15c-3 6-7 14-9 23v69c0 1 2 3 6 5l23 5v9h-83v-9l17-5c4-2 6-4 6-5v-96a109 109 0 0 0-1-16 13 13 0 0 0-3-6 12 12 0 0 0-6-3l-5-1h-8v-9a481 481 0 0 0 45-13l6 6 2 34a124 124 0 0 1 22-28c4-4 8-7 13-9s9-3 14-3a54 54 0 0 1 25 7zm-139 140a350 350 0 0 1-34 19l-7 2-5-2-5-5-3-10-2-15a173 173 0 0 1-35 26 55 55 0 0 1-40 4c-5-2-10-4-14-8l-9-16c-2-7-3-16-3-26v-73l-1-12-2-7c-2-2-4-3-7-3l-12-2v-8a230 230 0 0 0 47-11l5 7v99l2 19 5 12c2 3 4 5 7 6l10 2 10-2 11-4 12-8 14-13v-75l-1-12c0-3-1-5-3-7s-4-3-7-3l-13-2v-8a199 199 0 0 0 49-11l5 7v111l1 16 3 8h7l13-4zm-195-29a483 483 0 0 1-7 45h-151v-9l18-5c4-2 6-4 6-5V278c0-2-2-3-6-5-4-3-10-4-18-6v-9h141l6 5a241 241 0 0 1-7 41h-9c-1-10-2-18-5-22-2-5-5-7-9-7h-61v72h69l5 5a83 83 0 0 1-16 20 26 26 0 0 0-12-7l-9-2h-37v81l2 5 5 3 10 2 18 1h20l14-1 9-5c3-2 6-5 8-9l7-16z"/>
  <path fill="#fff" d="M460 259c18 0 32 15 32 32 0 19-14 32-32 32-16 0-31-13-31-32 0-17 15-32 31-32zm191 535c17 0 31 14 31 32s-14 32-31 32a32 32 0 0 1 0-64z" filter="url(#c)"/>
</svg>