<svg width="634" height="192" viewBox="0 0 634 192" fill="none" xmlns="http://www.w3.org/2000/svg">
<path d="M235 136.256V56.544L250.794 54V80.712C251.854 80.3587 253.197 80.0407 254.822 79.758C256.518 79.4047 258.143 79.228 259.698 79.228C264.221 79.228 267.966 79.864 270.934 81.136C273.973 82.3373 276.375 84.0687 278.142 86.33C279.979 88.5913 281.251 91.2767 281.958 94.386C282.735 97.4953 283.124 100.958 283.124 104.774V136.256H267.33V106.682C267.33 101.594 266.659 97.99 265.316 95.87C264.044 93.75 261.641 92.69 258.108 92.69C256.695 92.69 255.352 92.8313 254.08 93.114C252.879 93.326 251.783 93.5733 250.794 93.856V136.256H235ZM321.906 125.232C323.461 125.232 324.945 125.197 326.358 125.126C327.771 125.055 328.902 124.949 329.75 124.808V112.83C329.114 112.689 328.16 112.547 326.888 112.406C325.616 112.265 324.45 112.194 323.39 112.194C321.906 112.194 320.493 112.3 319.15 112.512C317.878 112.653 316.747 112.971 315.758 113.466C314.769 113.961 313.991 114.632 313.426 115.48C312.861 116.328 312.578 117.388 312.578 118.66C312.578 121.133 313.391 122.865 315.016 123.854C316.712 124.773 319.009 125.232 321.906 125.232ZM320.634 79.016C325.298 79.016 329.185 79.546 332.294 80.606C335.403 81.666 337.877 83.1853 339.714 85.164C341.622 87.1427 342.965 89.5453 343.742 92.372C344.519 95.1987 344.908 98.3433 344.908 101.806V134.666C342.647 135.161 339.502 135.726 335.474 136.362C331.446 137.069 326.57 137.422 320.846 137.422C317.242 137.422 313.956 137.104 310.988 136.468C308.091 135.832 305.582 134.807 303.462 133.394C301.342 131.91 299.717 130.002 298.586 127.67C297.455 125.338 296.89 122.476 296.89 119.084C296.89 115.833 297.526 113.077 298.798 110.816C300.141 108.555 301.907 106.753 304.098 105.41C306.289 104.067 308.797 103.113 311.624 102.548C314.451 101.912 317.383 101.594 320.422 101.594C322.471 101.594 324.273 101.7 325.828 101.912C327.453 102.053 328.761 102.265 329.75 102.548V101.064C329.75 98.3787 328.937 96.2233 327.312 94.598C325.687 92.9727 322.86 92.16 318.832 92.16C316.147 92.16 313.497 92.372 310.882 92.796C308.267 93.1493 306.006 93.6793 304.098 94.386L302.084 81.666C303.003 81.3833 304.133 81.1007 305.476 80.818C306.889 80.4647 308.409 80.182 310.034 79.97C311.659 79.6873 313.355 79.4753 315.122 79.334C316.959 79.122 318.797 79.016 320.634 79.016ZM361.84 66.614L377.634 64.07V80.5H396.608V93.644H377.634V113.254C377.634 116.575 378.199 119.225 379.33 121.204C380.531 123.183 382.898 124.172 386.432 124.172C388.128 124.172 389.859 124.031 391.626 123.748C393.463 123.395 395.124 122.935 396.608 122.37L398.834 134.666C396.926 135.443 394.806 136.115 392.474 136.68C390.142 137.245 387.28 137.528 383.888 137.528C379.577 137.528 376.008 136.963 373.182 135.832C370.355 134.631 368.094 133.005 366.398 130.956C364.702 128.836 363.5 126.292 362.794 123.324C362.158 120.356 361.84 117.07 361.84 113.466V66.614ZM407.929 108.378C407.929 104.35 408.565 100.569 409.837 97.036C411.18 93.432 413.088 90.3227 415.561 87.708C418.034 85.0227 421.038 82.9027 424.571 81.348C428.104 79.7933 432.132 79.016 436.655 79.016C439.623 79.016 442.344 79.2987 444.817 79.864C447.29 80.3587 449.693 81.1007 452.025 82.09L448.739 94.704C447.255 94.1387 445.63 93.644 443.863 93.22C442.096 92.796 440.118 92.584 437.927 92.584C433.263 92.584 429.765 94.0327 427.433 96.93C425.172 99.8273 424.041 103.643 424.041 108.378C424.041 113.395 425.101 117.282 427.221 120.038C429.412 122.794 433.192 124.172 438.563 124.172C440.471 124.172 442.52 123.995 444.711 123.642C446.902 123.289 448.916 122.723 450.753 121.946L452.979 134.878C451.142 135.655 448.845 136.327 446.089 136.892C443.333 137.457 440.294 137.74 436.973 137.74C431.885 137.74 427.504 136.998 423.829 135.514C420.154 133.959 417.116 131.875 414.713 129.26C412.381 126.645 410.65 123.571 409.519 120.038C408.459 116.434 407.929 112.547 407.929 108.378ZM466.759 136.256V56.544L482.553 54V80.712C483.613 80.3587 484.956 80.0407 486.581 79.758C488.277 79.4047 489.902 79.228 491.457 79.228C495.98 79.228 499.725 79.864 502.693 81.136C505.732 82.3373 508.134 84.0687 509.901 86.33C511.738 88.5913 513.01 91.2767 513.717 94.386C514.494 97.4953 514.883 100.958 514.883 104.774V136.256H499.089V106.682C499.089 101.594 498.418 97.99 497.075 95.87C495.803 93.75 493.4 92.69 489.867 92.69C488.454 92.69 487.111 92.8313 485.839 93.114C484.638 93.326 483.542 93.5733 482.553 93.856V136.256H466.759ZM529.709 108.802C529.709 103.855 530.451 99.5447 531.935 95.87C533.49 92.1247 535.504 89.0153 537.977 86.542C540.45 84.0687 543.277 82.196 546.457 80.924C549.708 79.652 553.029 79.016 556.421 79.016C564.336 79.016 570.59 81.454 575.183 86.33C579.776 91.1353 582.073 98.2373 582.073 107.636C582.073 108.555 582.038 109.579 581.967 110.71C581.896 111.77 581.826 112.724 581.755 113.572H545.927C546.28 116.823 547.8 119.402 550.485 121.31C553.17 123.218 556.774 124.172 561.297 124.172C564.194 124.172 567.021 123.925 569.777 123.43C572.604 122.865 574.9 122.193 576.667 121.416L578.787 134.242C577.939 134.666 576.808 135.09 575.395 135.514C573.982 135.938 572.392 136.291 570.625 136.574C568.929 136.927 567.092 137.21 565.113 137.422C563.134 137.634 561.156 137.74 559.177 137.74C554.16 137.74 549.778 136.998 546.033 135.514C542.358 134.03 539.284 132.016 536.811 129.472C534.408 126.857 532.606 123.783 531.405 120.25C530.274 116.717 529.709 112.901 529.709 108.802ZM566.809 102.76C566.738 101.417 566.491 100.11 566.067 98.838C565.714 97.566 565.113 96.4353 564.265 95.446C563.488 94.4567 562.463 93.644 561.191 93.008C559.99 92.372 558.47 92.054 556.633 92.054C554.866 92.054 553.347 92.372 552.075 93.008C550.803 93.5733 549.743 94.3507 548.895 95.34C548.047 96.3293 547.376 97.4953 546.881 98.838C546.457 100.11 546.139 101.417 545.927 102.76H566.809ZM596.911 66.614L612.705 64.07V80.5H631.679V93.644H612.705V113.254C612.705 116.575 613.271 119.225 614.401 121.204C615.603 123.183 617.97 124.172 621.503 124.172C623.199 124.172 624.931 124.031 626.697 123.748C628.535 123.395 630.195 122.935 631.679 122.37L633.905 134.666C631.997 135.443 629.877 136.115 627.545 136.68C625.213 137.245 622.351 137.528 618.959 137.528C614.649 137.528 611.08 136.963 608.253 135.832C605.427 134.631 603.165 133.005 601.469 130.956C599.773 128.836 598.572 126.292 597.865 123.324C597.229 120.356 596.911 117.07 596.911 113.466V66.614Z" fill="white"/>
<path d="M152 0H40C17.9086 0 0 17.9086 0 40V152C0 174.091 17.9086 192 40 192H152C174.091 192 192 174.091 192 152V40C192 17.9086 174.091 0 152 0Z" fill="#3F16E4"/>
<path d="M46.7633 101.834L60.0187 113.981L106.559 60.5747L93.3033 48.4274L46.7633 101.834Z" fill="#FFFEFE"/>
<path d="M60.0645 119.925L64.3877 115.062L82.71 115.522L74.2998 125.001L60.3799 140.975L60.1768 140.788L33.8154 116.848L43.8623 105.211L60.0645 119.925Z" fill="#FFFEFE"/>
<path d="M146.216 89.992L132.961 77.8447L86.421 131.251L99.6764 143.398L146.216 89.992Z" fill="#FFFEFE"/>
<path d="M133.087 51.2969L159.163 74.9785L149.116 86.6162L132.914 71.9014L128.592 76.7646L110.27 76.3037L118.67 66.835L132.6 50.8506L133.087 51.2969Z" fill="#FFFEFE"/>
</svg>
